{
  "accessors": [
    {
      "bufferView": 2,
      "componentType": 5126,
      "count": 1957,
      "max": [
        1.7930519580841064,
        1.7920180559158325,
        1.791604995727539
      ],
      "min": [
        -1.7930530309677124,
        -1.7920180559158325,
        -1.7916020154953003
      ],
      "type": "VEC3"
    },
    {
      "bufferView": 2,
      "byteOffset": 23484,
      "componentType": 5126,
      "count": 1957,
      "max": [
        0.9997846484184265,
        0.9991832971572876,
        0.998948335647583
      ],
      "min": [
        -0.9997846484184265,
        -0.9991832971572876,
        -0.998948335647583
      ],
      "type": "VEC3"
    },
    {
      "bufferView": 1,
      "componentType": 5126,
      "count": 1957,
      "max": [
        1.2416139841079712,
        0.9865890145301819
      ],
      "min": [
        0.0011340000201016665,
        0.0033309999853372574
      ],
      "type": "VEC2"
    },
    {
      "bufferView": 0,
      "componentType": 5125,
      "count": 11532,
      "type": "SCALAR"
    },
    {
      "bufferView": 2,
      "byteOffset": 46968,
      "componentType": 5126,
      "count": 1957,
      "max": [
        1.9076249599456787,
        1.8712660074234009,
        1.869251012802124
      ],
      "min": [
        -1.9076260328292847,
        -1.8712660074234009,
        -1.8692489862442017
      ],
      "type": "VEC3"
    },
    {
      "bufferView": 2,
      "byteOffset": 70452,
      "componentType": 5126,
      "count": 1957,
      "max": [
        0.9998235106468201,
        0.9990510940551758,
        0.9989272356033325
      ],
      "min": [
        -0.9998235106468201,
        -0.9990510940551758,
        -0.9989272356033325
      ],
      "type": "VEC3"
    },
    {
      "bufferView": 1,
      "byteOffset": 15656,
      "componentType": 5126,
      "count": 1957,
      "max": [
        1.2416139841079712,
        0.9865890145301819
      ],
      "min": [
        0.0011340000201016665,
        0.0033309999853372574
      ],
      "type": "VEC2"
    },
    {
      "bufferView": 0,
      "byteOffset": 46128,
      "componentType": 5125,
      "count": 11532,
      "type": "SCALAR"
    },
    {
      "bufferView": 2,
      "byteOffset": 93936,
      "componentType": 5126,
      "count": 1957,
      "max": [
        1.833024024963379,
        1.8346500396728516,
        1.8338760137557983
      ],
      "min": [
        -1.8330270051956177,
        -1.8346489667892456,
        -1.8338769674301147
      ],
      "type": "VEC3"
    },
    {
      "bufferView": 2,
      "byteOffset": 117420,
      "componentType": 5126,
      "count": 1957,
      "max": [
        0.9985119104385376,
        0.9993525147438049,
        0.998931884765625
      ],
      "min": [
        -0.9985119104385376,
        -0.9993525147438049,
        -0.998931884765625
      ],
      "type": "VEC3"
    },
    {
      "bufferView": 1,
      "byteOffset": 31312,
      "componentType": 5126,
      "count": 1957,
      "max": [
        1.2416139841079712,
        0.9865890145301819
      ],
      "min": [
        0.0011340000201016665,
        0.0033309999853372574
      ],
      "type": "VEC2"
    },
    {
      "bufferView": 0,
      "byteOffset": 92256,
      "componentType": 5125,
      "count": 11532,
      "type": "SCALAR"
    }
  ],
  "asset": {
    "extras": {
      "author": "Omer Bhatti (https://sketchfab.com/OmerBhatti)",
      "license": "CC-BY-NC-4.0 (http://creativecommons.org/licenses/by-nc/4.0/)",
      "source": "https://sketchfab.com/3d-models/realistic-3d-earth-model-with-4k-textures-4df7ccb1d4344829954ec04be943e885",
      "title": "Realistic 3D Earth Model With 4K Textures"
    },
    "generator": "Sketchfab-12.67.0",
    "version": "2.0"
  },
  "bufferViews": [
    {
      "buffer": 0,
      "byteLength": 138384,
      "name": "floatBufferViews",
      "target": 34963
    },
    {
      "buffer": 0,
      "byteLength": 46968,
      "byteOffset": 138384,
      "byteStride": 8,
      "name": "floatBufferViews",
      "target": 34962
    },
    {
      "buffer": 0,
      "byteLength": 140904,
      "byteOffset": 185352,
      "byteStride": 12,
      "name": "floatBufferViews",
      "target": 34962
    }
  ],
  "buffers": [
    {
      "byteLength": 326256,
      "uri": "scene.bin"
    }
  ],
  "images": [
    {
      "uri": "textures/atmosphere_baseColor.png"
    },
    {
      "uri": "textures/clouds_baseColor.jpeg"
    }
  ],
  "materials": [
    {
      "doubleSided": true,
      "name": "Material.001",
      "pbrMetallicRoughness": {
        "baseColorFactor": [
          0.8,
          0.8,
          0.8,
          1.0
        ],
        "metallicFactor": 0.0,
        "roughnessFactor": 0.0
      }
    },
    {
      "alphaMode": "BLEND",
      "doubleSided": true,
      "name": "atmosphere",
      "pbrMetallicRoughness": {
        "baseColorFactor": [
          0.6218877113620196,
          0.6218877113620196,
          0.6218877113620196,
          0.42002410888671876
        ],
        "baseColorTexture": {
          "index": 0
        },
        "metallicFactor": 0.0
      }
    },
    {
      "doubleSided": true,
      "name": "clouds",
      "pbrMetallicRoughness": {
        "baseColorTexture": {
          "index": 1
        },
        "metallicFactor": 0.0,
        "roughnessFactor": 0.2261079595546881
      }
    }
  ],
  "meshes": [
    {
      "name": "Object_0",
      "primitives": [
        {
          "attributes": {
            "NORMAL": 1,
            "POSITION": 0,
            "TEXCOORD_0": 2
          },
          "indices": 3,
          "material": 0,
          "mode": 4
        }
      ]
    },
    {
      "name": "Object_1",
      "primitives": [
        {
          "attributes": {
            "NORMAL": 5,
            "POSITION": 4,
            "TEXCOORD_0": 6
          },
          "indices": 7,
          "material": 1,
          "mode": 4
        }
      ]
    },
    {
      "name": "Object_2",
      "primitives": [
        {
          "attributes": {
            "NORMAL": 9,
            "POSITION": 8,
            "TEXCOORD_0": 10
          },
          "indices": 11,
          "material": 2,
          "mode": 4
        }
      ]
    }
  ],
  "nodes": [
    {
      "children": [
        1
      ],
      "matrix": [
        2.6645352591003757e-15,
        -0.999987006187439,
        0.005097363609820382,
        0.0,
        1.0,
        -1.7763568394002489e-15,
        -7.105427357601002e-15,
        0.0,
        2.6645352591003757e-15,
        0.005097363609820382,
        0.999987006187439,
        0.0,
        4.947185516357422e-06,
        -1.2453172075765919e-06,
        6.198866685735993e-06,
        1.0
      ],
      "name": "Sketchfab_model"
    },
    {
      "children": [
        2,
        3,
        4
      ],
      "name": "earth.obj.cleaner.materialmerger.gles"
    },
    {
      "mesh": 0,
      "name": "Object_2"
    },
    {
      "mesh": 1,
      "name": "Object_3"
    },
    {
      "mesh": 2,
      "name": "Object_4"
    }
  ],
  "samplers": [
    {
      "magFilter": 9729,
      "minFilter": 9987,
      "wrapS": 10497,
      "wrapT": 10497
    }
  ],
  "scene": 0,
  "scenes": [
    {
      "name": "Sketchfab_Scene",
      "nodes": [
        0
      ]
    }
  ],
  "textures": [
    {
      "sampler": 0,
      "source": 0
    },
    {
      "sampler": 0,
      "source": 1
    }
  ]
}
