<svg width="164" height="164" viewBox="0 0 164 164" fill="none" xmlns="http://www.w3.org/2000/svg">
<g clip-path="url(#clip0_5_3176)">
<path d="M113.736 120.045C118.963 116.611 123.598 112.36 127.459 107.457C135.224 97.6095 139.852 85.1807 139.852 71.6744C139.852 39.7308 113.953 13.832 82.0093 13.832C50.0585 13.832 24.1669 39.7308 24.1669 71.6744C24.1669 85.1445 28.7726 97.5375 36.4874 107.37C40.3629 112.301 45.0193 116.589 50.2754 120.038" fill="#CAF5FF"/>
<path d="M50.2734 122.051C49.8946 122.051 49.5114 121.944 49.1713 121.721C43.738 118.156 38.9383 113.746 34.9046 108.614C26.5627 97.9815 22.1538 85.2085 22.1538 71.674C22.1538 38.6698 49.0046 11.8189 82.0089 11.8189C100.308 11.8189 117.362 20.0288 128.798 34.3438C129.492 35.2121 129.35 36.4788 128.482 37.1724C127.613 37.8667 126.347 37.7247 125.653 36.856C114.985 23.5026 99.0776 15.8442 82.0089 15.8442C51.2242 15.8442 26.1791 40.8893 26.1791 71.674C26.1791 84.2984 30.2909 96.2124 38.0705 106.128C41.8333 110.915 46.3113 115.03 51.3791 118.355C52.3086 118.965 52.5678 120.213 51.958 121.142C51.5715 121.731 50.9287 122.051 50.2734 122.051Z" fill="#333333"/>
<path d="M113.737 122.058C113.082 122.058 112.44 121.739 112.053 121.15C111.443 120.221 111.701 118.974 112.63 118.363C117.686 115.042 122.143 110.953 125.877 106.212C133.703 96.288 137.839 84.3455 137.839 71.6744C137.839 62.145 135.396 52.7388 130.775 44.4734C130.233 43.5033 130.58 42.2768 131.55 41.7346C132.519 41.1924 133.746 41.539 134.288 42.5091C139.244 51.3735 141.864 61.4587 141.864 71.6744C141.864 85.2588 137.429 98.0636 129.039 108.704C125.037 113.785 120.26 118.167 114.841 121.727C114.5 121.951 114.116 122.058 113.737 122.058Z" fill="#333333"/>
<path d="M69.1494 25.6115C68.2627 25.6115 67.4508 25.021 67.2081 24.1245C66.9174 23.0514 67.5518 21.9465 68.6246 21.6558C72.9662 20.4801 77.4692 19.8839 82.0089 19.8839C84.7787 19.8839 87.5593 20.1077 90.2728 20.5493C91.37 20.7276 92.1143 21.7621 91.936 22.859C91.7577 23.9559 90.7244 24.7022 89.6263 24.5222C87.1258 24.1153 84.5629 23.9092 82.0089 23.9092C77.8243 23.9092 73.675 24.4582 69.6768 25.5414C69.5004 25.5885 69.3233 25.6115 69.1494 25.6115Z" fill="white"/>
<path d="M131.068 72.9677C129.956 72.9677 129.055 72.0665 129.055 70.9551C129.055 61.2776 126.14 51.9821 120.624 44.0741C115.231 36.3424 107.754 30.4631 99.0018 27.071C97.9653 26.6693 97.4505 25.5036 97.8526 24.4671C98.2543 23.4306 99.42 22.9162 100.457 23.3179C109.958 26.9998 118.073 33.381 123.926 41.7716C129.915 50.3583 133.081 60.45 133.081 70.9551C133.08 72.0665 132.18 72.9677 131.068 72.9677Z" fill="white"/>
<path d="M45.3332 96.0703C50.9521 96.0703 55.5071 91.5153 55.5071 85.8964C55.5071 80.2776 50.9521 75.7226 45.3332 75.7226C39.7144 75.7226 35.1594 80.2776 35.1594 85.8964C35.1594 91.5153 39.7144 96.0703 45.3332 96.0703Z" fill="#F9E33D"/>
<path d="M118.685 96.0703C124.304 96.0703 128.858 91.5153 128.858 85.8964C128.858 80.2776 124.304 75.7226 118.685 75.7226C113.066 75.7226 108.511 80.2776 108.511 85.8964C108.511 91.5153 113.066 96.0703 118.685 96.0703Z" fill="#F9E33D"/>
<path d="M45.3332 98.0829C38.6134 98.0829 33.1467 92.6158 33.1467 85.8964C33.1467 79.1771 38.6138 73.71 45.3332 73.71C52.0525 73.71 57.5196 79.1767 57.5196 85.8964C57.5196 92.6162 52.0529 98.0829 45.3332 98.0829ZM45.3332 77.7352C40.8329 77.7352 37.172 81.3962 37.172 85.8964C37.172 90.3967 40.8333 94.0576 45.3332 94.0576C49.833 94.0576 53.4944 90.3963 53.4944 85.8964C53.4944 81.3966 49.8334 77.7352 45.3332 77.7352Z" fill="#666666"/>
<path d="M118.685 98.0829C111.965 98.0829 106.498 92.6158 106.498 85.8964C106.498 79.1771 111.965 73.71 118.685 73.71C125.404 73.71 130.871 79.1767 130.871 85.8964C130.871 92.6162 125.404 98.0829 118.685 98.0829ZM118.685 77.7352C114.184 77.7352 110.523 81.3962 110.523 85.8964C110.523 90.3967 114.184 94.0576 118.685 94.0576C123.185 94.0576 126.846 90.3963 126.846 85.8964C126.846 81.3966 123.184 77.7352 118.685 77.7352Z" fill="#666666"/>
<path d="M78.7842 127.01C59.143 127.01 43.1636 111.031 43.1636 91.3897V79.0575C43.1636 59.4163 59.143 43.4373 78.7842 43.4373H85.2291C104.87 43.4373 120.85 59.4167 120.85 79.0575V91.3897C120.85 111.031 104.87 127.01 85.2291 127.01H78.7842Z" fill="#8FCDF7"/>
<path d="M110.064 81.6615V93.3238C110.064 107.134 98.8638 118.334 85.0539 118.334H78.9589C65.1491 118.334 53.9492 107.134 53.9492 93.3238V81.6615C53.9492 67.8516 65.1491 56.6518 78.9589 56.6518H85.0539C98.8642 56.6518 110.064 67.8516 110.064 81.6615Z" fill="#D8B86F"/>
<path d="M101.149 81.6615V93.3238C101.149 107.134 93.5078 118.334 84.0859 118.334H79.9274C70.5055 118.334 62.8644 107.134 62.8644 93.3238V81.6615C62.8644 67.8516 70.5055 56.6518 79.9274 56.6518H84.0859C93.5078 56.6518 101.149 67.8516 101.149 81.6615Z" fill="#F7D789"/>
<path d="M153.569 135.671C147.876 126.665 143.867 121.781 143.867 121.781C142.621 120.098 141.253 118.495 139.782 116.996L126.122 107.213C123.593 106.015 120.946 105.023 118.182 104.271H118.177C117.303 123.487 101.448 138.802 82.0053 138.802C62.5677 138.802 46.7123 123.487 45.838 104.271C43.0835 105.023 40.4228 106.015 37.8748 107.223L24.2192 117.005C22.7524 118.5 21.3987 120.089 20.1343 121.781C20.1343 121.781 16.12 126.67 10.4367 135.672C7.88912 139.704 5.01228 144.556 2.01306 150.168H161.988C158.989 144.551 156.107 139.7 153.569 135.671Z" fill="#44A1E0"/>
<path d="M146.509 135.671C146.48 135.624 146.462 135.582 146.433 135.54C142.706 129.64 138.254 124.239 133.201 119.426L120.382 107.213C119.616 106.79 118.84 106.4 118.051 106.047C107.31 128.554 68.9892 145.909 45.9603 106.047C45.1706 106.409 44.3901 106.8 43.624 107.218L30.8052 119.426C25.7519 124.239 21.2912 129.64 17.5634 135.54C17.5444 135.582 17.5163 135.624 17.4833 135.671C14.9353 139.7 12.0588 144.556 9.06445 150.168H154.937C151.938 144.556 149.061 139.7 146.509 135.671Z" fill="#53AEF9"/>
<path d="M85.2291 129.023H78.7843C58.0333 129.023 41.151 112.141 41.151 91.3897V79.0571C41.151 58.3062 58.0333 41.4243 78.7843 41.4243H85.2291C105.98 41.4243 122.862 58.3062 122.862 79.0571V91.3897C122.862 112.141 105.98 129.023 85.2291 129.023ZM78.7843 45.4495C60.2528 45.4495 45.1763 60.5261 45.1763 79.0571V91.3897C45.1763 109.921 60.2528 124.997 78.7843 124.997H85.2291C103.761 124.997 118.837 109.921 118.837 91.3897V79.0571C118.837 60.5257 103.761 45.4495 85.2291 45.4495H78.7843Z" fill="#666666"/>
<path d="M85.054 120.346H78.9586C64.0583 120.346 51.9363 108.224 51.9363 93.3238V81.6615C51.9363 66.7612 64.0583 54.6392 78.9586 54.6392H85.054C99.9543 54.6392 112.076 66.7612 112.076 81.6615V93.3238C112.076 108.224 99.9543 120.346 85.054 120.346ZM78.959 58.6644C66.2786 58.6644 55.9619 68.9807 55.9619 81.6615V93.3238C55.9619 106.005 66.2782 116.321 78.959 116.321H85.054C97.7344 116.321 108.051 106.005 108.051 93.3238V81.6615C108.051 68.9811 97.7348 58.6644 85.054 58.6644H78.959Z" fill="#666666"/>
<path d="M74.6064 91.8659C73.495 91.8659 72.5938 90.9646 72.5938 89.8533V75.812C72.5938 74.7006 73.495 73.7994 74.6064 73.7994C75.7177 73.7994 76.619 74.7006 76.619 75.812V89.8533C76.619 90.965 75.7177 91.8659 74.6064 91.8659Z" fill="#666666"/>
<path d="M89.4069 91.8659C88.2955 91.8659 87.3943 90.9646 87.3943 89.8533V75.812C87.3943 74.7006 88.2955 73.7994 89.4069 73.7994C90.5183 73.7994 91.4195 74.7006 91.4195 75.812V89.8533C91.4195 90.965 90.5183 91.8659 89.4069 91.8659Z" fill="#666666"/>
<path d="M161.988 152.181H2.01303C1.3062 152.181 0.650888 151.81 0.287005 151.204C-0.0768776 150.598 -0.0957963 149.845 0.237092 149.221C2.92515 144.182 5.78469 139.262 8.7356 134.596C13.5788 126.921 24.6374 112.196 35.355 105.699C36.2269 105.17 37.3567 105.377 37.9847 106.181C48.6532 119.843 64.6999 127.679 82.0097 127.679C99.2836 127.679 115.305 119.875 125.966 106.268C126.599 105.461 127.737 105.259 128.608 105.797C139.623 112.605 150.865 127.613 155.271 134.598C158.261 139.343 161.118 144.263 163.763 149.221C164.096 149.845 164.077 150.597 163.713 151.204C163.35 151.81 162.695 152.181 161.988 152.181ZM5.39545 148.156H158.605C156.468 144.288 154.208 140.462 151.866 136.744C147.196 129.341 137.214 116.563 127.972 110.19C116.558 123.886 99.9108 131.705 82.0097 131.705C64.0643 131.705 47.3873 123.851 35.9648 110.09C26.3477 116.611 16.5679 129.727 12.1386 136.745C9.82001 140.412 7.55943 144.238 5.39545 148.156Z" fill="#333333"/>
<path d="M45.7925 143.642C45.2326 143.642 44.6759 143.41 44.2778 142.956L23.0788 118.754C22.3466 117.918 22.4308 116.646 23.2668 115.914C24.1029 115.181 25.374 115.265 26.107 116.102L47.306 140.303C48.0382 141.139 47.9541 142.411 47.1181 143.144C46.7361 143.478 46.2631 143.642 45.7925 143.642Z" fill="#333333"/>
<path d="M110.726 152.181C110.255 152.181 109.783 152.017 109.401 151.683C108.564 150.951 108.48 149.679 109.212 148.843L124.269 131.647C125.001 130.811 126.273 130.727 127.109 131.459C127.945 132.191 128.03 133.463 127.297 134.299L112.241 151.494C111.843 151.949 111.286 152.181 110.726 152.181Z" fill="#333333"/>
<path d="M133.021 126.723C132.551 126.723 132.078 126.558 131.696 126.224C130.86 125.492 130.776 124.22 131.508 123.384L137.81 116.188C138.542 115.352 139.814 115.268 140.65 116C141.486 116.733 141.57 118.004 140.838 118.841L134.536 126.036C134.138 126.49 133.581 126.723 133.021 126.723Z" fill="#333333"/>
<path d="M92.5333 115.819C95.0527 115.819 97.0951 113.777 97.0951 111.258C97.0951 108.738 95.0527 106.696 92.5333 106.696C90.0138 106.696 87.9714 108.738 87.9714 111.258C87.9714 113.777 90.0138 115.819 92.5333 115.819Z" fill="#ED6B5D"/>
<path d="M92.5333 117.832C88.9082 117.832 85.9589 114.883 85.9589 111.258C85.9589 107.633 88.9082 104.683 92.5333 104.683C96.1585 104.683 99.1078 107.633 99.1078 111.258C99.1078 114.883 96.1585 117.832 92.5333 117.832ZM92.5333 108.708C91.1277 108.708 89.9841 109.852 89.9841 111.258C89.9841 112.663 91.1277 113.807 92.5333 113.807C93.9389 113.807 95.0825 112.663 95.0825 111.258C95.0825 109.852 93.9389 108.708 92.5333 108.708Z" fill="#666666"/>
</g>
<defs>
<clipPath id="clip0_5_3176">
<rect width="164" height="164" fill="white"/>
</clipPath>
</defs>
</svg>
