<svg width="1444" height="1439" viewBox="0 0 1444 1439" fill="none" xmlns="http://www.w3.org/2000/svg">
<path d="M722.313 1438.09C450.174 1438.09 213.084 1287.85 90.3445 1065.99C-180.441 576.811 193.056 -17.0248 738.282 0.373512C1085.12 7.38679 1378.1 262.157 1433.99 600.953C1507.33 1038.2 1168.35 1438.09 722.313 1438.09Z" fill="url(#paint0_radial_14_1265)"/>
<g opacity="0.75">
<path d="M1008.8 835.358C978.89 827.941 970.635 865.03 987.551 873.392C1004.47 881.889 1046.96 907.245 1055.48 890.251C1064.01 873.392 1042.76 843.855 1008.8 835.358Z" fill="#056DB1"/>
<path d="M1305.83 522.458C1276.87 529.067 1242.23 543.633 1271.87 564.808C1301.64 585.982 1348.19 577.486 1352.52 552.13C1356.72 526.639 1361.05 509.781 1305.83 522.458Z" fill="#056DB1"/>
<path d="M724.478 1203.29C662.228 1166.06 571.695 1152.57 563.17 1190.61C554.644 1228.64 614.052 1287.85 686.18 1279.35C758.444 1270.99 766.97 1228.64 724.478 1203.29Z" fill="#056DB1"/>
<path d="M927.467 1408.56C871.307 1425.15 812.305 1435.13 751.274 1437.42C765.212 1349.35 849.249 1377.13 894.177 1389.27C907.304 1392.91 918.265 1400.06 927.467 1408.56Z" fill="#056DB1"/>
<path d="M329.869 1199.1C357.34 1211.11 376.556 1152.57 338.395 1101.86C300.233 1051.15 283.182 987.627 236.495 974.949C189.808 962.272 164.366 1127.22 329.869 1199.1Z" fill="#056DB1"/>
<path d="M143.121 991.808C128.1 994.505 121.875 1025.66 155.841 1029.84C189.808 1034.16 189.808 983.446 143.121 991.808Z" fill="#056DB1"/>
<path d="M520.813 818.5C490.906 815.803 461.405 831.178 465.6 865.031C469.795 898.883 516.482 865.031 537.728 865.031C558.974 865.031 567.5 822.681 520.813 818.5Z" fill="#056DB1"/>
<path d="M813.658 425.217C787.946 413.079 783.886 467.566 805.132 475.928C826.378 484.425 885.786 458.935 813.658 425.217Z" fill="#056DB1"/>
</g>
<path d="M542.059 700.084C397.803 725.44 376.557 729.621 245.021 839.675C158.007 912.371 67.2035 888.903 15.7799 864.626C6.17178 817.691 1.02905 769.003 1.02905 719.101C1.02905 514.637 86.6902 329.999 224.181 199.175C252.464 215.899 281.694 238.557 304.428 268.768C368.031 353.332 355.311 387.184 542.059 484.426C728.673 581.668 686.316 674.729 542.059 700.084Z" fill="url(#paint1_linear_14_1265)"/>
<path d="M1374.31 411.055C1241.15 383.272 1150.35 533.383 1059.68 522.458C953.584 509.78 983.355 353.33 894.175 188.383C849.518 105.843 846.406 48.6575 854.39 12.2424C1084.85 54.5918 1276.74 206.186 1374.31 411.055Z" fill="url(#paint2_linear_14_1265)"/>
<path d="M1443.73 719.1C1443.73 998.148 1284.32 1239.97 1051.29 1359.2C998.106 1275.44 1084.31 1213.27 1187.02 1148.39C1314.36 1068.01 1195.55 1034.16 1216.66 903.064C1237.9 771.97 1157.25 763.473 1195.41 653.553C1222.61 575.058 1364.43 649.507 1443.33 698.6C1443.6 705.343 1443.73 712.222 1443.73 719.1Z" fill="url(#paint3_linear_14_1265)"/>
<path d="M766.969 936.917C689.834 960.789 648.154 869.212 550.584 890.386C453.015 911.561 372.361 1084.87 503.897 1080.69C635.433 1076.51 669.4 1059.51 766.969 1127.22C864.539 1194.92 979.159 1148.39 1013.13 1042.66C1046.96 936.916 1025.71 856.534 766.969 936.917Z" fill="url(#paint4_linear_14_1265)"/>
<path d="M928.143 619.701C887.546 632.648 877.261 653.553 889.981 678.909C902.702 704.265 953.584 700.084 979.026 738.117C1004.47 776.151 1068.2 822.681 1085.12 738.117C1102.17 653.553 1021.52 590.029 928.143 619.701Z" fill="url(#paint5_linear_14_1265)"/>
<path opacity="0.5" d="M779.691 399.727C772.113 456.103 720.284 399.727 635.435 382.868C550.586 366.009 516.619 315.163 554.781 281.311C592.943 247.458 643.825 222.102 694.843 251.639C745.725 281.311 788.082 336.338 779.691 399.727Z" fill="#056DB1"/>
<path d="M690.512 65.6523C584.417 65.6523 533.535 124.861 435.965 158.713C377.775 178.809 331.765 155.476 304.023 133.357C422.027 49.4679 566.419 0.105347 722.449 0.105347C727.862 0.105347 733.139 0.105199 738.417 0.37494C745.86 30.8557 743.153 65.6523 690.512 65.6523Z" fill="url(#paint6_linear_14_1265)"/>
<path opacity="0.45" d="M1409.36 939.073C1350.49 1121.82 1220.17 1272.74 1051.29 1359.2C1011.91 1379.29 970.499 1395.88 927.466 1408.69C871.306 1425.28 812.304 1435.26 751.272 1437.55C741.664 1437.96 732.056 1438.09 722.313 1438.09C450.174 1438.09 213.084 1287.85 90.3438 1065.99C55.9712 1003.95 30.5303 936.241 15.7799 864.624C6.17177 817.689 1.02905 769.001 1.02905 719.099C1.02905 632.242 16.4563 549.027 44.7392 472.016C126.34 714.918 313.089 1028.36 737.604 1086.49C820.424 1097.82 897.829 1099.3 970.093 1093.1C1147.37 1077.59 1293.25 1015.81 1409.36 939.073Z" fill="url(#paint7_linear_14_1265)"/>
<path opacity="0.45" d="M1443.73 719.099C1443.73 795.84 1431.69 869.75 1409.36 939.073C1350.49 1121.82 1220.17 1272.74 1051.29 1359.2C1011.91 1379.29 970.499 1395.88 927.465 1408.69C871.305 1425.28 812.303 1435.26 751.271 1437.55C741.663 1437.96 732.055 1438.09 722.312 1438.09C450.173 1438.09 213.083 1287.85 90.343 1065.99C215.113 1117.1 363.7 1152.03 539.893 1158.91C710.809 1165.66 852.63 1139.36 970.092 1092.96C1222.61 993.426 1363.35 800.83 1439.67 642.223C1441.7 660.7 1442.92 679.582 1443.46 698.464C1443.6 705.342 1443.73 712.221 1443.73 719.099Z" fill="url(#paint8_linear_14_1265)"/>
<path d="M1434.12 601.356C1434.12 601.356 1331.41 226.415 859.128 103.009C576.028 28.9648 379.535 95.7258 267.621 161.003C625.015 -129.778 1171.59 -14.3288 1374.31 411.053C1421.4 509.644 1430.74 587.599 1434.12 601.356Z" fill="url(#paint9_linear_14_1265)"/>
<defs>
<radialGradient id="paint0_radial_14_1265" cx="0" cy="0" r="1" gradientUnits="userSpaceOnUse" gradientTransform="translate(758.127 437.735) scale(875.477 872.536)">
<stop stop-color="#00B3DC"/>
<stop offset="1" stop-color="#056DB0"/>
</radialGradient>
<linearGradient id="paint1_linear_14_1265" x1="248.341" y1="-389.371" x2="412.722" y2="1678.65" gradientUnits="userSpaceOnUse">
<stop stop-color="#F2F236"/>
<stop offset="1" stop-color="#F2F236" stop-opacity="0"/>
</linearGradient>
<linearGradient id="paint2_linear_14_1265" x1="1057.83" y1="-453.717" x2="1222.21" y2="1614.3" gradientUnits="userSpaceOnUse">
<stop stop-color="#F2F236"/>
<stop offset="1" stop-color="#F2F236" stop-opacity="0"/>
</linearGradient>
<linearGradient id="paint3_linear_14_1265" x1="1122.1" y1="-458.826" x2="1286.48" y2="1609.19" gradientUnits="userSpaceOnUse">
<stop stop-color="#F2F236"/>
<stop offset="1" stop-color="#F2F236" stop-opacity="0"/>
</linearGradient>
<linearGradient id="paint4_linear_14_1265" x1="616.628" y1="-418.647" x2="781.009" y2="1649.38" gradientUnits="userSpaceOnUse">
<stop stop-color="#F2F236"/>
<stop offset="1" stop-color="#F2F236" stop-opacity="0"/>
</linearGradient>
<linearGradient id="paint5_linear_14_1265" x1="895.955" y1="-440.852" x2="1060.34" y2="1627.17" gradientUnits="userSpaceOnUse">
<stop stop-color="#F2F236"/>
<stop offset="1" stop-color="#F2F236" stop-opacity="0"/>
</linearGradient>
<linearGradient id="paint6_linear_14_1265" x1="483.909" y1="-408.098" x2="648.291" y2="1659.92" gradientUnits="userSpaceOnUse">
<stop stop-color="#F2F236"/>
<stop offset="1" stop-color="#F2F236" stop-opacity="0"/>
</linearGradient>
<linearGradient id="paint7_linear_14_1265" x1="612.661" y1="1649.88" x2="720.145" y2="666.58" gradientUnits="userSpaceOnUse">
<stop stop-color="#00ACD8"/>
<stop offset="1" stop-color="#0983BD"/>
</linearGradient>
<linearGradient id="paint8_linear_14_1265" x1="685.409" y1="1607.61" x2="805.538" y2="579.894" gradientUnits="userSpaceOnUse">
<stop stop-color="#056EB1"/>
<stop offset="1" stop-color="#00A9D7" stop-opacity="0.3"/>
</linearGradient>
<linearGradient id="paint9_linear_14_1265" x1="1246.23" y1="-395.874" x2="794.611" y2="497.696" gradientUnits="userSpaceOnUse">
<stop stop-color="#E2FFB5"/>
<stop offset="1" stop-color="#FFFFB3" stop-opacity="0"/>
</linearGradient>
</defs>
</svg>
