<svg width="164" height="164" viewBox="0 0 164 164" fill="none" xmlns="http://www.w3.org/2000/svg">
<g clip-path="url(#clip0_26_4608)">
<path d="M99.0206 126.915C93.6083 128.432 87.8983 129.244 81.9996 129.244C76.1008 129.244 70.3908 128.432 64.9786 126.915C38.4748 119.493 19.0305 95.1586 19.0305 66.2751C19.0305 31.5003 47.2248 3.30608 81.9996 3.30608C116.782 3.30608 144.969 31.5003 144.969 66.2751C144.969 95.1586 125.532 119.493 99.0206 126.915Z" fill="#3CA523"/>
<path d="M104.024 123.398C99.201 124.827 94.1128 125.592 88.8563 125.592C83.5999 125.592 78.5121 124.827 73.6886 123.398C50.0711 116.407 32.7441 93.4833 32.7441 66.2747C32.7441 33.5165 57.8683 6.95717 88.8563 6.95717C119.851 6.95717 144.969 33.5165 144.969 66.2747C144.969 93.4837 127.648 116.407 104.024 123.398Z" fill="#44CC27"/>
<path d="M66.9737 89.5719C72.2992 94.9044 73.7067 102.675 71.1963 109.292C64.5796 111.802 56.8091 110.395 51.4762 105.069C46.1437 99.7369 44.7431 91.9664 47.2535 85.3493C53.8706 82.8389 61.6412 84.239 66.9737 89.5719Z" fill="#F24125"/>
<path d="M116.753 85.3493C119.263 91.966 117.855 99.7365 112.523 105.069C107.19 110.395 99.4268 111.802 92.8027 109.292C90.2923 102.675 91.6999 94.9048 97.0328 89.5719C102.365 84.239 110.136 82.8389 116.753 85.3493Z" fill="#F24125"/>
<path d="M122.423 161.944H41.5715C44.5158 157.643 47.2791 154.139 49.479 151.417C51.2883 148.925 64.8046 134.015 66.7249 126.86C71.5813 128.221 76.7049 128.949 82.0012 128.949C87.2934 128.949 92.417 128.221 97.2733 126.86C99.1937 134.015 112.739 148.95 114.556 151.462C116.748 154.176 119.495 157.667 122.423 161.944Z" fill="#3CA523"/>
<path d="M109.285 161.944H54.7218C55.0138 161.286 55.3222 160.706 55.6429 160.213C57.1068 157.721 68.0654 142.811 69.6239 135.656C73.555 137.017 77.7082 137.745 82.0011 137.745C86.29 137.745 90.4432 137.017 94.3784 135.656C95.9327 142.811 106.912 157.746 108.384 160.258C108.701 160.739 109.001 161.302 109.285 161.944Z" fill="#44CC27"/>
<path d="M142.649 51.3434C141.75 51.3434 140.924 50.7488 140.67 49.8401C140.047 47.6101 139.287 45.3925 138.411 43.2489C137.982 42.1978 138.485 40.9975 139.536 40.5678C140.588 40.1385 141.788 40.6422 142.218 41.6933C143.153 43.9829 143.965 46.3514 144.631 48.7331C144.936 49.8265 144.297 50.961 143.204 51.2665C143.019 51.3188 142.833 51.3434 142.649 51.3434Z" fill="#333333"/>
<path d="M81.9995 131.3C76.0338 131.3 70.1207 130.491 64.4238 128.895C51.0338 125.145 38.9633 116.978 30.4361 105.897C21.6293 94.4529 16.9745 80.752 16.9745 66.2751C16.9745 30.4201 46.1445 1.25006 81.9995 1.25006C103.636 1.25006 123.793 11.9673 135.92 29.9184C136.555 30.8593 136.308 32.1373 135.367 32.773C134.426 33.4083 133.148 33.1608 132.512 32.2204C121.152 15.4025 102.268 5.36211 81.9995 5.36211C48.4119 5.36211 21.0865 32.6875 21.0865 66.2751C21.0865 79.8367 25.4465 92.6708 33.6949 103.389C41.6846 113.771 52.9915 121.423 65.5328 124.935C70.8686 126.43 76.4084 127.188 81.9991 127.188C87.5903 127.188 93.13 126.43 98.4654 124.936C111.01 121.423 122.317 113.772 130.307 103.389C138.553 92.6716 142.913 79.8379 142.913 66.2751C142.913 63.4658 142.72 60.6416 142.339 57.8812C142.184 56.7561 142.971 55.7187 144.096 55.5636C145.22 55.4086 146.258 56.1948 146.413 57.3199C146.819 60.2662 147.025 63.2791 147.025 66.2751C147.025 80.7528 142.371 94.4542 133.566 105.897C125.04 116.978 112.968 125.146 99.5753 128.895C93.8788 130.491 87.9653 131.3 81.9995 131.3Z" fill="#333333"/>
<path d="M116.982 27.5725C116.508 27.5725 116.031 27.4093 115.643 27.0758C114.069 25.7233 112.398 24.4544 110.677 23.3038C109.734 22.6726 109.48 21.3958 110.111 20.4517C110.743 19.508 112.02 19.2547 112.963 19.8855C114.821 21.1273 116.624 22.497 118.323 23.9568C119.184 24.6966 119.283 25.9947 118.542 26.8562C118.136 27.3295 117.561 27.5725 116.982 27.5725Z" fill="white"/>
<path d="M135.711 68.3307C134.575 68.3307 133.655 67.41 133.655 66.2747C133.655 54.5648 129.835 43.524 122.609 34.3463C121.907 33.454 122.06 32.1616 122.952 31.4592C123.845 30.7569 125.137 30.9107 125.84 31.8026C133.642 41.713 137.767 53.633 137.767 66.2751C137.767 67.4104 136.847 68.3307 135.711 68.3307Z" fill="white"/>
<path d="M64.6215 112.552C59.2434 112.552 53.9582 110.453 50.0238 106.524C44.2973 100.797 42.456 92.1999 45.3315 84.6198C45.54 84.0696 45.9742 83.6353 46.5244 83.4269C54.1037 80.5509 62.7016 82.3923 68.4277 88.1179C68.4277 88.1183 68.4281 88.1187 68.4285 88.1187C74.1512 93.8497 75.9922 102.447 73.1183 110.021C72.9098 110.571 72.4756 111.005 71.9254 111.214C69.5515 112.115 67.0764 112.552 64.6215 112.552ZM48.8687 86.964C47.0232 92.8085 48.5685 99.2537 52.9302 103.615C57.2955 107.975 63.7407 109.521 69.5815 107.677C71.4257 101.837 69.88 95.3913 65.5192 91.0247C61.1571 86.6635 54.7123 85.119 48.8687 86.964Z" fill="#333333"/>
<path d="M65.5744 100.764C64.7175 100.764 63.9177 100.224 63.6274 99.3672C63.1212 97.8742 62.2671 96.4974 61.1573 95.3864C59.2098 93.4385 56.6163 92.3652 53.8563 92.3652C52.721 92.3652 51.8003 91.4445 51.8003 90.3092C51.8003 89.1739 52.721 88.2532 53.8563 88.2532C57.7147 88.2532 61.3407 89.7541 64.0661 92.4795C65.6197 94.0355 66.8146 95.9604 67.5219 98.0473C67.8862 99.1226 67.3101 100.29 66.2348 100.654C66.0161 100.728 65.7936 100.764 65.5744 100.764Z" fill="white"/>
<path d="M99.3766 112.551C96.9217 112.551 94.4483 112.114 92.074 111.214C91.5238 111.006 91.0892 110.571 90.8803 110.021C88.0055 102.444 89.8498 93.8464 95.5783 88.1175C101.304 82.3919 109.901 80.5505 117.482 83.4265C118.032 83.6349 118.466 84.0692 118.674 84.6194C121.549 92.1962 119.704 100.794 113.976 106.523C110.043 110.452 104.756 112.551 99.3766 112.551ZM94.4175 107.676C100.259 109.519 106.705 107.973 111.07 103.615C115.434 99.2509 116.982 92.806 115.138 86.964C109.294 85.119 102.848 86.6639 98.4867 91.0255C94.1218 95.3905 92.574 101.835 94.4175 107.676Z" fill="#333333"/>
<path d="M101.394 95.9892C100.868 95.9892 100.342 95.7885 99.94 95.3868C99.1369 94.5837 99.1369 93.2822 99.94 92.4791C102.665 89.7541 106.291 88.2532 110.149 88.2532C110.75 88.2532 111.355 88.2906 111.949 88.3642C113.075 88.5036 113.876 89.5304 113.736 90.6575C113.597 91.7846 112.571 92.584 111.443 92.445C111.017 92.3924 110.582 92.3656 110.149 92.3656C107.389 92.3656 104.796 93.4389 102.847 95.3876C102.446 95.7885 101.92 95.9892 101.394 95.9892Z" fill="white"/>
<path d="M120.726 163.104C117.873 158.933 115.198 155.533 112.957 152.758C112.933 152.73 112.911 152.7 112.889 152.67C112.55 152.2 111.646 151.117 110.501 149.745C105.934 144.275 97.4328 134.094 95.4562 127.964L99.37 126.702C101.102 132.072 109.581 142.229 113.657 147.11C114.868 148.56 115.751 149.618 116.189 150.215C118.474 153.046 121.2 156.513 124.12 160.784L120.726 163.104Z" fill="#333333"/>
<path d="M43.2768 163.104L39.8823 160.784C42.8019 156.513 45.5282 153.046 47.8132 150.216C48.2524 149.614 49.1422 148.549 50.3611 147.089C54.4316 142.212 62.902 132.065 64.6278 126.703L68.5421 127.963C66.5712 134.086 58.0798 144.258 53.5179 149.724C52.3649 151.105 51.4545 152.196 51.1148 152.668C51.0926 152.698 51.0696 152.728 51.0461 152.758C48.8046 155.533 46.1294 158.933 43.2768 163.104Z" fill="#333333"/>
<path d="M122.423 164H41.5797C40.4444 164 39.5237 163.079 39.5237 161.944C39.5237 160.809 40.4444 159.888 41.5797 159.888H122.423C123.558 159.888 124.479 160.809 124.479 161.944C124.479 163.079 123.558 164 122.423 164Z" fill="#333333"/>
<path d="M45.6051 16.9807C44.8842 16.9807 44.1844 16.6007 43.8081 15.9268L36.6244 3.05854C36.0709 2.06712 36.4258 0.814592 37.4172 0.26111C38.409 -0.292372 39.6611 0.0629091 40.2146 1.05391L47.3983 13.9217C47.9518 14.9132 47.5969 16.1657 46.6055 16.7192C46.2885 16.8964 45.9443 16.9807 45.6051 16.9807Z" fill="#333333"/>
<path d="M118.394 16.9807C118.055 16.9807 117.711 16.8964 117.394 16.7196C116.402 16.1661 116.047 14.9136 116.601 13.9222L123.785 1.05433C124.338 0.0629119 125.591 -0.291958 126.582 0.261524C127.573 0.815006 127.928 2.06754 127.375 3.05895L120.191 15.9268C119.814 16.6007 119.115 16.9807 118.394 16.9807Z" fill="#333333"/>
<path d="M85.3608 36.9377C84.2254 36.9377 83.3048 36.017 83.3048 34.8817C83.3048 32.8413 81.6443 31.1808 79.6039 31.1808C77.5635 31.1808 75.9031 32.8413 75.9031 34.8817C75.9031 36.017 74.9824 36.9377 73.847 36.9377C72.7117 36.9377 71.791 36.017 71.791 34.8817C71.791 30.5735 75.2957 27.0688 79.6039 27.0688C83.9121 27.0688 87.4168 30.5735 87.4168 34.8817C87.4168 36.017 86.4961 36.9377 85.3608 36.9377Z" fill="#333333"/>
<path d="M111.212 53.8242C110.077 53.8242 109.156 52.9036 109.156 51.7682C109.156 50.6493 108.246 49.7393 107.128 49.7393C106.009 49.7393 105.099 50.6493 105.099 51.7682C105.099 52.9036 104.178 53.8242 103.043 53.8242C101.907 53.8242 100.987 52.9036 100.987 51.7682C100.987 48.3819 103.741 45.6273 107.128 45.6273C110.514 45.6273 113.268 48.3819 113.268 51.7682C113.268 52.9036 112.348 53.8242 111.212 53.8242Z" fill="#333333"/>
<path d="M133.006 81.759C131.871 81.759 130.95 80.8383 130.95 79.703C130.95 78.5841 130.04 77.6741 128.921 77.6741C127.802 77.6741 126.892 78.5841 126.892 79.703C126.892 80.8383 125.972 81.759 124.836 81.759C123.701 81.759 122.78 80.8383 122.78 79.703C122.78 76.3167 125.535 73.5621 128.921 73.5621C132.308 73.5621 135.062 76.3167 135.062 79.703C135.062 80.8383 134.142 81.759 133.006 81.759Z" fill="#333333"/>
<path d="M99.7257 158.216C98.5904 158.216 97.6697 157.295 97.6697 156.16C97.6697 155.041 96.7597 154.131 95.6408 154.131C94.5219 154.131 93.6119 155.041 93.6119 156.16C93.6119 157.295 92.6912 158.216 91.5559 158.216C90.4206 158.216 89.4999 157.295 89.4999 156.16C89.4999 152.774 92.2545 150.019 95.6408 150.019C99.0271 150.019 101.782 152.774 101.782 156.16C101.782 157.295 100.861 158.216 99.7257 158.216Z" fill="#333333"/>
<path d="M57.3717 57.0345C56.2363 57.0345 55.3156 56.1138 55.3156 54.9785C55.3156 53.0713 53.7642 51.5199 51.857 51.5199C49.9498 51.5199 48.3979 53.0713 48.3979 54.9785C48.3979 56.1138 47.4772 57.0345 46.3419 57.0345C45.2066 57.0345 44.2859 56.1138 44.2859 54.9785C44.2859 50.8039 47.682 47.4078 51.857 47.4078C56.0315 47.4078 59.4277 50.8039 59.4277 54.9785C59.4277 56.1138 58.507 57.0345 57.3717 57.0345Z" fill="#333333"/>
</g>
<defs>
<clipPath id="clip0_26_4608">
<rect width="164" height="164" fill="white"/>
</clipPath>
</defs>
</svg>
