<svg width="48" height="49" viewBox="0 0 48 49" fill="none" xmlns="http://www.w3.org/2000/svg">
<g clip-path="url(#clip0_96_5382)">
<path d="M32.3142 29.6487C32.7304 29.9315 39.0486 34.3608 37.6846 43.3268C37.6846 43.3268 36.4766 40.5376 31.8256 39.7006C32.4544 36.4611 32.5573 33.0499 32.3142 29.6487Z" fill="#53AEF9"/>
<path d="M37.6846 43.3268L31.415 41.508C31.5711 40.9119 31.708 40.3102 31.8256 39.7006C36.4766 40.5376 37.6846 43.3268 37.6846 43.3268Z" fill="#399EE2"/>
<path d="M32.3142 29.6487C32.5574 33.0499 32.4544 36.4611 31.8256 39.7006C31.708 40.3102 31.5711 40.9119 31.415 41.508C31.1989 42.3303 30.9445 43.1391 30.6504 43.9308H29.3441H18.6563H17.35C17.0559 43.1391 16.8014 42.3304 16.5854 41.5069C16.4293 40.9119 16.2924 40.3091 16.1748 39.7006C15.546 36.4611 15.443 33.0486 15.6862 29.6476C16.0165 25.0509 16.9813 20.4734 18.1429 16.371C19.9617 17.0655 21.9365 17.4455 23.9996 17.4455C26.0627 17.4455 28.0376 17.0655 29.8575 16.371C31.0191 20.4734 31.9839 25.0508 32.3142 29.6487Z" fill="#399EE2"/>
<path d="M29.6164 29.6487C29.7807 33.0499 29.7111 36.4611 29.2863 39.7006C29.2068 40.3102 29.1144 40.9119 29.0089 41.508C28.8629 42.3303 28.691 43.1391 28.4924 43.9308H27.61H20.3904H19.5079C19.3093 43.1391 19.1374 42.3304 18.9915 41.5069C18.886 40.9119 18.7936 40.3091 18.7141 39.7006C18.2893 36.4611 18.2197 33.0486 18.384 29.6476C18.6071 25.0509 19.2588 20.4734 20.0435 16.371C21.2722 17.0655 22.6062 17.4455 23.9998 17.4455C25.3935 17.4455 26.7275 17.0655 27.9568 16.371C28.7415 20.4734 29.3932 25.0508 29.6164 29.6487Z" fill="#53AEF9"/>
<path d="M29.3439 43.9308L30.8652 47.9914H17.1351L18.6563 43.9308H29.3439Z" fill="#E81F1F"/>
<path d="M27.4288 43.9308L28.405 47.9914H19.5954L20.5715 43.9308H27.4288Z" fill="#F73E3E"/>
<path d="M29.8574 16.371C29.2296 16.6096 28.5849 16.8121 27.9244 16.9727C26.6667 17.2826 25.3524 17.4455 23.9995 17.4455C22.6468 17.4455 21.3324 17.2826 20.0758 16.9727C19.4141 16.8121 18.7694 16.6107 18.1428 16.371C18.3938 15.4842 18.6541 14.619 18.9188 13.7808C19.3271 13.9437 19.7445 14.0873 20.1709 14.2106C21.3857 14.5624 22.6706 14.7513 23.9996 14.7513C25.3287 14.7513 26.6136 14.5624 27.8295 14.2106C28.2559 14.0873 28.6733 13.9437 29.0816 13.7808C29.3462 14.6189 29.6063 15.4841 29.8574 16.371Z" fill="#399EE2"/>
<path d="M28.2004 16.7668C28.1087 16.838 28.0172 16.9059 27.9244 16.9727C26.6667 17.2826 25.3524 17.4455 23.9995 17.4455C22.6468 17.4455 21.3324 17.2826 20.0758 16.9727C19.983 16.9059 19.8915 16.8381 19.7998 16.7668C19.9209 15.9004 20.0453 15.0464 20.1708 14.2105C21.3856 14.5623 22.6705 14.7512 23.9995 14.7512C25.3286 14.7512 26.6135 14.5623 27.8294 14.2105C27.9549 15.0464 28.0793 15.9004 28.2004 16.7668Z" fill="#80C8F9"/>
<path d="M29.0815 13.7807C28.3453 14.0748 27.5772 14.3067 26.7832 14.4684C25.8839 14.6539 24.9531 14.7512 23.9995 14.7512C23.0461 14.7512 22.1152 14.654 21.2159 14.4684C20.4231 14.3067 19.6551 14.0748 18.9187 13.7807C21.2714 6.33832 23.9995 1.00863 23.9995 1.00863C23.9995 1.00863 26.7277 6.33832 29.0815 13.7807Z" fill="#E81F1F"/>
<path d="M26.7831 14.4685C25.8839 14.654 24.9531 14.7513 23.9995 14.7513C23.0461 14.7513 22.1152 14.6541 21.2159 14.4685C22.5156 6.6086 23.9995 1.00863 23.9995 1.00863C23.9995 1.00863 25.4835 6.6086 26.7831 14.4685Z" fill="#F73E3E"/>
<path d="M23.9995 19.8377C26.5728 19.8377 28.6585 21.9234 28.6585 24.4966C28.6585 27.0698 26.5728 29.1555 23.9995 29.1555C21.4263 29.1555 19.3406 27.0698 19.3406 24.4966C19.3406 21.9234 21.4264 19.8377 23.9995 19.8377ZM27.0942 24.4966C27.0942 22.7875 25.7086 21.402 23.9996 21.402C22.2907 21.402 20.9051 22.7876 20.9051 24.4966C20.9051 26.2056 22.2907 27.5912 23.9996 27.5912C25.7086 27.5912 27.0942 26.2057 27.0942 24.4966Z" fill="#399EE2"/>
<path d="M23.9995 31.5478C26.5728 31.5478 28.6585 33.6335 28.6585 36.2056C28.6585 38.7788 26.5728 40.8645 23.9995 40.8645C21.4263 40.8645 19.3406 38.7787 19.3406 36.2056C19.3406 33.6335 21.4264 31.5478 23.9995 31.5478ZM27.0942 36.2056C27.0942 34.4965 25.7086 33.111 23.9996 33.111C22.2907 33.111 20.905 34.4965 20.905 36.2056C20.905 37.9158 22.2906 39.3014 23.9995 39.3014C25.7085 39.3014 27.0942 37.9157 27.0942 36.2056Z" fill="#399EE2"/>
<path d="M21.8112 22.3084C20.6027 23.5169 20.6027 25.4764 21.8112 26.6848C22.4159 27.2895 23.2077 27.5918 23.9994 27.5918C24.7913 27.5918 25.583 27.2895 26.1877 26.6848C27.3962 25.4763 27.3962 23.5168 26.1877 22.3084C25.583 21.7037 24.7913 21.4014 23.9994 21.4014C23.2077 21.4014 22.4159 21.7037 21.8112 22.3084Z" fill="white"/>
<path d="M26.1882 34.0175C24.9797 32.809 23.0201 32.809 21.8117 34.0175C20.6024 35.2268 20.6024 37.1862 21.8109 38.3947C23.0194 39.6032 24.979 39.6032 26.1882 38.3939C27.3966 37.1854 27.3966 35.226 26.1882 34.0175Z" fill="white"/>
<path d="M16.5854 41.5069L10.3158 43.3268C10.3158 43.3268 11.5238 40.5376 16.1748 39.7006C16.2924 40.3091 16.4292 40.912 16.5854 41.5069Z" fill="#399EE2"/>
<path d="M15.6861 29.6476C15.4429 33.0487 15.5459 36.4612 16.1747 39.7006C11.5237 40.5376 10.3158 43.3268 10.3158 43.3268C8.94948 34.3529 15.28 29.9224 15.6861 29.6476Z" fill="#53AEF9"/>
<path d="M30.6503 44.4394H29.3439C29.0629 44.4394 28.8352 44.2117 28.8352 43.9308C28.8352 43.6499 29.0629 43.4222 29.3439 43.4222H30.2939C30.5296 42.7581 30.7409 42.0723 30.9231 41.3788C31.0762 40.794 31.2119 40.1968 31.3262 39.6042C31.9032 36.6317 32.0649 33.2946 31.8069 29.685C31.5155 25.6284 30.695 21.1954 29.3682 16.5095C29.1275 15.6598 28.8679 14.7933 28.5966 13.9339C26.8473 8.40304 24.8705 4.00667 23.9996 2.17043C23.1288 4.00667 21.1522 8.40304 19.4038 13.934C19.1329 14.7918 18.8733 15.6583 18.6322 16.5095C17.3055 21.1953 16.485 25.6279 16.1935 29.684C15.9354 33.2938 16.0971 36.6313 16.6741 39.6036C16.7896 40.2012 16.9252 40.798 17.0773 41.3778C17.2592 42.0712 17.4704 42.7573 17.7064 43.4222H18.6564C18.9373 43.4222 19.165 43.6499 19.165 43.9308C19.165 44.2117 18.9373 44.4394 18.6564 44.4394H17.35C17.1374 44.4394 16.9473 44.3072 16.8733 44.1079C16.5766 43.3093 16.3142 42.4777 16.0934 41.6359C15.9358 41.0346 15.7951 40.4159 15.6754 39.797C15.0815 36.7375 14.9144 33.3103 15.1789 29.6112C15.4754 25.486 16.3079 20.9847 17.6535 16.2323C17.8973 15.3714 18.1599 14.495 18.4338 13.6275C20.7723 6.22998 23.5195 0.830506 23.547 0.776795C23.6338 0.606913 23.8087 0.5 23.9995 0.5C24.1904 0.5 24.3652 0.606913 24.4523 0.776896C24.4799 0.830607 27.2269 6.22998 29.5664 13.6274C29.8409 14.4967 30.1034 15.3731 30.3468 16.2324C31.6925 20.9848 32.525 25.4865 32.8215 29.6123C33.0858 33.3111 32.9187 36.7379 32.3247 39.7975C32.2063 40.4112 32.0657 41.0302 31.9069 41.6369C31.6856 42.4791 31.4232 43.3104 31.1271 44.1079C31.0532 44.3072 30.8629 44.4394 30.6503 44.4394Z" fill="#333333"/>
<path d="M10.3158 43.8355C10.2197 43.8355 10.1245 43.8082 10.0419 43.7554C9.91852 43.6766 9.835 43.5482 9.81303 43.4034C9.23177 39.586 9.95667 35.9709 11.9092 32.9489C13.3947 30.6499 15.0786 29.4446 15.4011 29.2263C15.4103 29.2201 15.4195 29.2142 15.429 29.2087C15.6611 29.0536 15.9693 29.1184 16.1264 29.3494C16.2836 29.5804 16.2191 29.8989 15.9894 30.0578C15.9894 30.0578 15.9796 30.0645 15.9599 30.0765C15.7317 30.2327 14.1453 31.3626 12.7636 33.5011C11.0202 36.1993 10.3408 39.2825 10.7408 42.6739L16.4436 41.0185C16.4472 41.0175 16.4509 41.0164 16.4546 41.0155L16.4716 41.011C16.7431 40.9391 17.0216 41.1003 17.0939 41.3717C17.1661 41.6431 17.0046 41.9217 16.7332 41.9941L16.7217 41.9971L10.4577 43.8154C10.4111 43.8288 10.3634 43.8355 10.3158 43.8355Z" fill="#333333"/>
<path d="M37.6845 43.8355C37.637 43.8355 37.5892 43.8289 37.5427 43.8153L31.2732 41.9966C31.2698 41.9956 31.2663 41.9946 31.2628 41.9934L31.2447 41.9877C30.9766 41.9038 30.8274 41.6184 30.9114 41.3503C30.9954 41.0821 31.2814 40.9332 31.5488 41.017L31.5617 41.0211L37.2594 42.674C37.6586 39.2852 36.9802 36.2038 35.2396 33.5074C33.8556 31.3634 32.255 30.2246 32.0369 30.0753C32.0184 30.0637 32.0098 30.0579 32.0098 30.0579C31.7787 29.8999 31.7165 29.5836 31.8733 29.3516C32.0292 29.1209 32.3395 29.0573 32.5719 29.2101C32.5787 29.2143 32.5936 29.2237 32.5999 29.228C32.9236 29.4479 34.6129 30.6608 36.0943 32.9558C38.0439 35.9761 38.7676 39.5889 38.1873 43.4035C38.1652 43.5483 38.0818 43.6766 37.9583 43.7555C37.8758 43.8082 37.7806 43.8355 37.6845 43.8355Z" fill="#333333"/>
<path d="M23.9995 15.2598C22.1791 15.2598 20.4063 14.9211 18.7305 14.2532C18.4696 14.1492 18.3423 13.8533 18.4464 13.5924C18.5503 13.3314 18.8461 13.2043 19.1072 13.3082C20.6628 13.9282 22.3088 14.2426 23.9996 14.2426C25.6912 14.2426 27.3378 13.9282 28.8932 13.3082C29.1547 13.2041 29.4501 13.3315 29.5541 13.5924C29.658 13.8533 29.5308 14.1492 29.2699 14.2532C27.594 14.9212 25.8207 15.2598 23.9995 15.2598Z" fill="#333333"/>
<path d="M27.9243 17.4826C27.6954 17.4826 27.4876 17.3272 27.4306 17.095C27.3638 16.8221 27.5307 16.5468 27.8036 16.4799C28.437 16.3248 29.067 16.1282 29.6761 15.8958C29.9382 15.7955 30.2325 15.9273 30.3326 16.1897C30.4327 16.4522 30.3011 16.746 30.0387 16.8462C29.3903 17.0936 28.7197 17.3028 28.0457 17.468C28.0051 17.4779 27.9644 17.4826 27.9243 17.4826Z" fill="#333333"/>
<path d="M26.1112 17.8001C25.861 17.8001 25.6429 17.6156 25.6079 17.3609C25.5696 17.0825 25.7641 16.8259 26.0424 16.7876C26.183 16.7683 26.3229 16.7472 26.4621 16.7242C26.7398 16.6782 27.0009 16.8662 27.0467 17.1434C27.0924 17.4206 26.9047 17.6822 26.6276 17.728C26.4794 17.7524 26.3306 17.7749 26.181 17.7954C26.1575 17.7986 26.1342 17.8001 26.1112 17.8001Z" fill="#333333"/>
<path d="M23.9996 17.9541C21.9185 17.9541 19.8869 17.5813 17.9613 16.8461C17.6989 16.7459 17.5674 16.452 17.6677 16.1895C17.7679 15.9271 18.0617 15.7956 18.3243 15.8958C20.1335 16.5866 22.043 16.9369 23.9997 16.9369C24.2052 16.9369 24.4139 16.9329 24.62 16.925C24.9017 16.9143 25.1368 17.1332 25.1476 17.4139C25.1583 17.6945 24.9395 17.9308 24.6587 17.9415C24.4397 17.9499 24.218 17.9541 23.9996 17.9541Z" fill="#333333"/>
<path d="M23.9995 41.3731C21.1501 41.3731 18.832 39.055 18.832 36.2056C18.832 33.3568 21.1501 31.0392 23.9995 31.0392C24.8596 31.0392 25.7116 31.2549 26.463 31.663C26.7099 31.7971 26.8014 32.1059 26.6673 32.3527C26.5334 32.5995 26.2245 32.6911 25.9777 32.557C25.3746 32.2295 24.6907 32.0564 23.9995 32.0564C21.711 32.0564 19.8493 33.9177 19.8493 36.2056C19.8493 38.4941 21.711 40.3559 23.9995 40.3559C26.2881 40.3559 28.1498 38.4941 28.1498 36.2056C28.1498 35.0974 27.7181 34.0555 26.9343 33.2718C26.7356 33.0733 26.7356 32.7512 26.9342 32.5525C27.1329 32.3538 27.4548 32.3537 27.6535 32.5525C28.6296 33.5284 29.1671 34.8258 29.1671 36.2057C29.1672 39.0549 26.8491 41.3731 23.9995 41.3731Z" fill="#333333"/>
<path d="M23.9995 29.6641C21.1501 29.6641 18.832 27.346 18.832 24.4966C18.832 21.6472 21.1501 19.3291 23.9995 19.3291C24.8145 19.3291 25.6263 19.5238 26.3473 19.892C26.5974 20.0198 26.6967 20.3262 26.5689 20.5763C26.4411 20.8265 26.1347 20.9256 25.8845 20.7979C25.2979 20.4983 24.6637 20.3463 23.9995 20.3463C21.711 20.3463 19.8493 22.2081 19.8493 24.4966C19.8493 26.7851 21.711 28.6469 23.9995 28.6469C26.2881 28.6469 28.1498 26.7851 28.1498 24.4966C28.1498 23.388 27.7181 22.3456 26.9343 21.5618C26.7356 21.3631 26.7356 21.0412 26.9342 20.8425C27.1329 20.644 27.455 20.644 27.6535 20.8425C28.6296 21.8185 29.1671 23.1162 29.1671 24.4966C29.1672 27.346 26.8491 29.6641 23.9995 29.6641Z" fill="#333333"/>
<path d="M30.8652 48.5H17.1351C16.9683 48.5 16.8121 48.4182 16.7171 48.2812C16.6221 48.1442 16.6003 47.9692 16.6588 47.8129L18.1801 43.7524C18.2545 43.5538 18.4443 43.4222 18.6564 43.4222H29.344C29.5561 43.4222 29.7459 43.5537 29.8204 43.7524L31.3417 47.8129C31.4002 47.9692 31.3783 48.1441 31.2834 48.2812C31.1882 48.4182 31.032 48.5 30.8652 48.5ZM17.8688 47.4827H30.1314L28.9913 44.4394H19.009L17.8688 47.4827Z" fill="#333333"/>
<path d="M21.8112 22.3084C20.6027 23.5169 20.6027 25.4764 21.8112 26.6848C22.4159 27.2895 23.2077 27.5918 23.9994 27.5918V21.4014C23.2077 21.4014 22.4159 21.7037 21.8112 22.3084Z" fill="#C3E7FC"/>
<path d="M21.8388 33.9903C20.6303 35.1988 20.6303 37.1582 21.8388 38.3667C22.4434 38.9714 23.2353 39.2737 24.027 39.2737V33.0833C23.2353 33.0833 22.4434 33.3857 21.8388 33.9903Z" fill="#C3E7FC"/>
<path d="M23.9995 28.0999C23.0371 28.0999 22.1322 27.725 21.4516 27.0445C20.7711 26.364 20.3962 25.4591 20.3962 24.4966C20.3962 23.5341 20.7711 22.6292 21.4516 21.9487C22.1322 21.2681 23.037 20.8933 23.9995 20.8933C24.9621 20.8933 25.8669 21.2681 26.5474 21.9487C27.2279 22.6292 27.6028 23.5341 27.6028 24.4966C27.6028 25.4591 27.2279 26.364 26.5474 27.0445C25.8669 27.725 24.9621 28.0999 23.9995 28.0999ZM23.9995 21.9119C23.3373 21.9119 22.6751 22.1639 22.1709 22.6681C21.1626 23.6764 21.1626 25.317 22.1709 26.3252C23.1792 27.3336 24.8199 27.3335 25.8282 26.3252C26.8364 25.3169 26.8364 23.6763 25.8282 22.6681C25.324 22.1639 24.6619 21.9119 23.9995 21.9119Z" fill="#333333"/>
<path d="M23.9996 39.8099C22.0128 39.8099 20.3963 38.193 20.3963 36.2056C20.3963 34.2187 22.0128 32.6023 23.9996 32.6023C25.9864 32.6023 27.6028 34.2187 27.6028 36.2056C27.6029 38.193 25.9864 39.8099 23.9996 39.8099ZM23.9996 33.6195C22.5736 33.6195 21.4136 34.7796 21.4136 36.2056C21.4136 37.6321 22.5737 38.7927 23.9996 38.7927C25.4254 38.7927 26.5855 37.6321 26.5855 36.2056C26.5856 34.7796 25.4255 33.6195 23.9996 33.6195Z" fill="#333333"/>
<path d="M28.5873 46.788C28.3813 46.788 28.1874 46.6619 28.1108 46.4577L27.8724 45.8216C27.7739 45.5585 27.9073 45.2653 28.1704 45.1668C28.4333 45.0682 28.7265 45.2017 28.8252 45.4646L29.0635 46.1007C29.1621 46.3638 29.0287 46.6569 28.7656 46.7555C28.7068 46.7775 28.6465 46.788 28.5873 46.788Z" fill="white"/>
<path d="M24.6878 6.88448C24.4884 6.88448 24.2993 6.76658 24.218 6.57097C24.093 6.27057 23.9715 5.98248 23.8539 5.70732C23.7435 5.44904 23.8633 5.15007 24.1217 5.03969C24.3798 4.92942 24.6789 5.04915 24.7893 5.30754C24.9082 5.58565 25.0311 5.87679 25.1574 6.18044C25.2652 6.43984 25.1424 6.73749 24.883 6.84532C24.819 6.87187 24.7528 6.88448 24.6878 6.88448Z" fill="white"/>
<path d="M26.895 12.7124C26.6836 12.7124 26.4861 12.5796 26.4139 12.3684C25.9685 11.0675 25.4844 9.74815 24.9751 8.44709C24.8727 8.18545 25.0017 7.89044 25.2634 7.78801C25.5249 7.68557 25.82 7.81466 25.9225 8.07619C26.4371 9.39089 26.9262 10.7241 27.3763 12.0388C27.4674 12.3046 27.3257 12.5938 27.0598 12.6848C27.0052 12.7035 26.9496 12.7124 26.895 12.7124Z" fill="white"/>
<path d="M29.1469 20.4166C28.9171 20.4166 28.7087 20.2598 28.6528 20.0267C28.551 19.6035 28.4445 19.176 28.3361 18.756C28.2659 18.484 28.4294 18.2066 28.7013 18.1363C28.9734 18.0663 29.2507 18.2296 29.321 18.5016C29.431 18.9271 29.5389 19.3603 29.6418 19.789C29.7076 20.0622 29.5392 20.3368 29.2662 20.4025C29.2261 20.412 29.1861 20.4166 29.1469 20.4166Z" fill="white"/>
<path d="M29.8837 41.6144C29.8411 41.6144 29.7978 41.609 29.7545 41.5976C29.4828 41.5265 29.3202 41.2485 29.3914 40.9768C29.5356 40.4256 29.6635 39.8628 29.7712 39.3042C30.3221 36.4669 30.4755 33.2688 30.2272 29.7978C30.0497 27.3267 29.6652 24.6818 29.0843 21.9369C29.0261 21.662 29.2018 21.3921 29.4765 21.334C29.7513 21.2758 30.0212 21.4514 30.0794 21.7262C30.67 24.5164 31.061 27.2077 31.242 29.7251C31.4965 33.2853 31.3376 36.5731 30.7698 39.4974C30.658 40.0771 30.5253 40.6618 30.3754 41.2344C30.3156 41.4631 30.1093 41.6144 29.8837 41.6144Z" fill="white"/>
</g>
<defs>
<clipPath id="clip0_96_5382">
<rect width="48" height="48" fill="white" transform="translate(0 0.5)"/>
</clipPath>
</defs>
</svg>
