<svg width="164" height="164" viewBox="0 0 164 164" fill="none" xmlns="http://www.w3.org/2000/svg">
<path d="M113.735 120.045C118.963 116.611 123.598 112.359 127.459 107.457C135.224 97.609 139.852 85.1802 139.852 71.6738C139.852 39.7301 113.953 13.8312 82.0091 13.8312C50.0582 13.8312 24.1665 39.7301 24.1665 71.6738C24.1665 85.1439 28.7722 97.5369 36.487 107.37C40.3625 112.301 45.019 116.588 50.2752 120.037" fill="#CAF5FF"/>
<path d="M50.2727 122.051C49.8943 122.051 49.5107 121.944 49.1706 121.721C43.7369 118.156 38.9368 113.745 34.9039 108.614C26.5619 97.9809 22.1534 85.2079 22.1534 71.6738C22.1534 38.6695 49.0044 11.8186 82.0087 11.8186C100.308 11.8186 117.362 20.0285 128.798 34.3435C129.492 35.2118 129.35 36.4785 128.482 37.1721C127.613 37.8656 126.347 37.7247 125.653 36.8557C114.986 23.5023 99.0778 15.8438 82.0087 15.8438C51.2239 15.8438 26.1787 40.889 26.1787 71.6738C26.1787 84.2978 30.2905 96.2118 38.0697 106.128C41.8321 110.915 46.3106 115.029 51.3789 118.355C52.3083 118.965 52.5671 120.212 51.9573 121.142C51.5709 121.731 50.9284 122.051 50.2727 122.051Z" fill="#333333"/>
<path d="M113.737 122.058C113.082 122.058 112.44 121.739 112.053 121.15C111.443 120.221 111.701 118.973 112.63 118.363C117.687 115.041 122.144 110.953 125.878 106.212C133.703 96.2879 137.839 84.3453 137.839 71.6742C137.839 62.1448 135.396 52.7386 130.775 44.4731C130.233 43.5026 130.58 42.2765 131.55 41.7343C132.52 41.1913 133.746 41.5391 134.289 42.5088C139.245 51.3732 141.864 61.4589 141.864 71.6742C141.864 85.2587 137.429 98.063 129.039 108.703C125.038 113.785 120.26 118.167 114.841 121.728C114.5 121.951 114.116 122.058 113.737 122.058Z" fill="#333333"/>
<path d="M78.7837 127.01C59.1424 127.01 43.163 111.03 43.163 91.3895V79.0573C43.163 59.4161 59.1424 43.437 78.7837 43.437H85.2285C104.87 43.437 120.849 59.4165 120.849 79.0573V91.3895C120.849 111.031 104.87 127.01 85.2285 127.01H78.7837Z" fill="#F78181"/>
<path d="M153.569 135.671C147.876 126.665 143.867 121.78 143.867 121.78C142.621 120.097 141.253 118.494 139.782 116.995L126.122 107.213C123.592 106.014 120.946 105.022 118.182 104.27H118.177C117.303 123.487 101.448 138.801 82.0051 138.801C62.5675 138.801 46.712 123.487 45.8377 104.27C43.0832 105.022 40.4225 106.014 37.8746 107.222L24.2189 117.004C22.752 118.499 21.3984 120.088 20.134 121.78C20.134 121.78 16.1196 126.669 10.4364 135.671C7.88837 139.704 5.01151 144.556 2.0127 150.168H161.988C158.989 144.551 156.107 139.7 153.569 135.671Z" fill="#CE3030"/>
<path d="M146.508 135.671C146.48 135.624 146.461 135.582 146.433 135.539C142.705 129.64 138.254 124.239 133.2 119.425L120.382 107.213C119.615 106.79 118.84 106.4 118.05 106.047C107.309 128.554 68.9886 145.909 45.9597 106.047C45.1699 106.409 44.3894 106.799 43.6234 107.218L30.8046 119.425C25.7512 124.239 21.2905 129.64 17.5627 135.539C17.5437 135.582 17.5156 135.624 17.4826 135.671C14.935 139.7 12.0581 144.556 9.06372 150.168H154.937C151.938 144.556 149.061 139.7 146.508 135.671Z" fill="#F73E3E"/>
<path d="M85.2285 129.023H78.7833C58.0318 129.023 41.1499 112.141 41.1499 91.3895V79.0569C41.1499 58.3059 58.0318 41.424 78.7833 41.424H85.2285C105.98 41.424 122.862 58.3059 122.862 79.0569V91.3895C122.862 112.14 105.98 129.023 85.2285 129.023ZM78.7837 45.4492C60.2522 45.4492 45.1756 60.5258 45.1756 79.0569V91.3895C45.1756 109.921 60.2522 124.997 78.7837 124.997H85.2289C103.76 124.997 118.837 109.921 118.837 91.3895V79.0569C118.837 60.5254 103.76 45.4492 85.2289 45.4492H78.7837Z" fill="#666666"/>
<path d="M85.0538 118.333H78.9587C65.1489 118.333 53.949 109.642 53.949 98.9256V89.8756C53.949 79.1592 65.1489 70.4678 78.9587 70.4678H85.0538C98.8636 70.4678 110.064 79.1588 110.064 89.8756V98.9256C110.064 109.642 98.8636 118.333 85.0538 118.333Z" fill="#F9911E"/>
<path d="M85.0538 120.346H78.9583C64.058 120.346 51.9359 110.737 51.9359 98.9256V89.8756C51.9359 78.0643 64.058 68.4552 78.9583 68.4552H85.0538C99.9541 68.4552 112.076 78.0643 112.076 89.8756V98.9256C112.076 110.737 99.9537 120.346 85.0538 120.346ZM78.9583 72.4809C66.2775 72.4809 55.9612 80.2842 55.9612 89.876V98.926C55.9612 108.518 66.2775 116.321 78.9583 116.321H85.0538C97.7345 116.321 108.051 108.518 108.051 98.926V89.8756C108.051 80.2838 97.7345 72.4805 85.0538 72.4805L78.9583 72.4809Z" fill="#666666"/>
<path d="M161.988 152.181H2.01268C1.30544 152.181 0.65053 151.81 0.286647 151.204C-0.0768345 150.597 -0.0957533 149.845 0.237136 149.221C2.92601 144.18 5.78515 139.26 8.73527 134.595C13.5785 126.921 24.6371 112.197 35.3551 105.699C36.227 105.17 37.3569 105.378 37.9844 106.182C48.653 119.844 64.6993 127.68 82.0095 127.68C99.2831 127.68 115.304 119.876 125.966 106.269C126.598 105.461 127.736 105.259 128.608 105.798C139.621 112.604 150.864 127.613 155.27 134.598C158.263 139.346 161.12 144.266 163.763 149.221C164.096 149.845 164.077 150.598 163.713 151.204C163.35 151.81 162.695 152.181 161.988 152.181ZM5.3951 148.156H158.605C156.468 144.29 154.209 140.464 151.866 136.744C147.195 129.341 137.213 116.562 127.972 110.19C116.558 123.886 99.9106 131.705 82.0095 131.705C64.0641 131.705 47.387 123.851 35.9645 110.09C26.347 116.611 16.5676 129.727 12.1382 136.745C9.82048 140.41 7.55949 144.236 5.3951 148.156Z" fill="#333333"/>
<path d="M45.7918 143.642C45.2319 143.642 44.6752 143.41 44.2771 142.956L23.0784 118.754C22.3459 117.918 22.43 116.646 23.266 115.913C24.1025 115.181 25.3741 115.265 26.1063 116.101L47.3049 140.303C48.0375 141.139 47.9534 142.411 47.1173 143.144C46.7353 143.478 46.2624 143.642 45.7918 143.642Z" fill="#333333"/>
<path d="M110.725 152.181C110.255 152.181 109.782 152.017 109.4 151.683C108.564 150.95 108.48 149.679 109.212 148.842L124.268 131.647C125 130.811 126.272 130.727 127.108 131.459C127.945 132.191 128.029 133.463 127.297 134.299L112.24 151.494C111.843 151.948 111.285 152.181 110.725 152.181Z" fill="#333333"/>
<path d="M133.021 126.722C132.551 126.722 132.078 126.558 131.696 126.223C130.86 125.491 130.776 124.22 131.508 123.384L137.809 116.188C138.541 115.352 139.813 115.268 140.649 116C141.485 116.733 141.57 118.004 140.838 118.84L134.536 126.035C134.138 126.49 133.581 126.722 133.021 126.722Z" fill="#333333"/>
<path d="M48.2013 71.4746C48.2013 71.4746 43.2414 54.1112 46.0172 37.7292C46.0172 37.7292 58.083 40.575 70.0887 51.083L48.2013 71.4746Z" fill="#F9911E"/>
<path d="M115.811 71.4746C115.811 71.4746 120.771 54.1112 117.995 37.7292C117.995 37.7292 105.93 40.575 93.924 51.083L115.811 71.4746Z" fill="#F9911E"/>
<path d="M48.201 73.4877C48.021 73.4877 47.8399 73.4635 47.6616 73.414C46.9865 73.2264 46.458 72.7011 46.2656 72.0277C46.0579 71.3007 41.2127 54.034 44.0324 37.3936C44.125 36.8453 44.441 36.3599 44.9043 36.0527C45.3676 35.7452 45.9392 35.6434 46.4786 35.771C46.991 35.8917 59.1722 38.8547 71.4134 49.5692C71.8417 49.9443 72.0917 50.4833 72.1001 51.0525C72.109 51.6221 71.8763 52.1683 71.4597 52.5563L49.5724 72.9479C49.1956 73.2993 48.7033 73.4877 48.201 73.4877ZM47.6692 40.3248C46.2966 51.2457 48.1857 62.3244 49.347 67.6571L67.0569 51.1571C59.0825 44.6604 51.2964 41.538 47.6692 40.3248Z" fill="#666666"/>
<path d="M115.811 73.4872C115.309 73.4872 114.817 73.2988 114.44 72.947L92.5522 52.5554C92.1355 52.1674 91.9029 51.6212 91.9117 51.0516C91.9202 50.4824 92.1702 49.9434 92.5984 49.5683C104.84 38.8538 117.021 35.8908 117.533 35.7701C118.074 35.6425 118.644 35.7447 119.108 36.0519C119.571 36.359 119.887 36.8444 119.979 37.3927C122.8 54.0331 117.954 71.3003 117.746 72.0272C117.554 72.7006 117.025 73.2259 116.35 73.4135C116.172 73.463 115.991 73.4872 115.811 73.4872ZM96.9554 51.1566L114.664 67.655C115.824 62.3175 117.712 51.2295 116.343 40.3239C112.717 41.5371 104.93 44.6599 96.9554 51.1566Z" fill="#666666"/>
<path d="M84.0068 101.826H80.0053C77.8405 101.826 75.9994 100.247 75.6689 98.1081L74.6263 91.3602H89.3858L88.3432 98.1081C88.0127 100.248 86.1716 101.826 84.0068 101.826Z" fill="#666666"/>
<path d="M84.0069 104.524H80.0058C76.8262 104.524 74.1655 102.243 73.6801 99.1011L72.6375 92.3528C72.5478 91.7723 72.716 91.1814 73.0988 90.7354C73.4816 90.2894 74.0395 90.0326 74.6268 90.0326H89.3862C89.9735 90.0326 90.5318 90.2894 90.9142 90.7354C91.2966 91.1814 91.4649 91.7723 91.3755 92.3528L90.3326 99.1007C89.8467 102.243 87.1864 104.524 84.0069 104.524ZM76.9744 94.0583L77.6583 98.4865C77.8382 99.6522 78.8256 100.499 80.0058 100.499H84.0069C85.1867 100.499 86.1741 99.6522 86.354 98.4861L87.0383 94.0583H76.9744Z" fill="#666666"/>
<path d="M74.5153 119.238L71.7032 116.358L75.388 112.76C78.3147 109.902 79.9933 105.917 79.9933 101.826H84.0185C84.0185 106.994 81.8976 112.029 78.2 115.64L74.5153 119.238Z" fill="#666666"/>
<path d="M89.4969 119.238L85.8122 115.64C82.1142 112.029 79.9937 106.994 79.9937 101.826H84.0189C84.0189 105.916 85.6974 109.902 88.6242 112.76L92.3089 116.358L89.4969 119.238Z" fill="#666666"/>
<path d="M89.3846 93.3732C89.0823 93.3732 88.7748 93.3047 88.4861 93.1602C87.4919 92.6631 87.089 91.4543 87.5865 90.4601L90.9407 83.7512C91.2817 83.0693 91.9785 82.6386 92.7408 82.6386H101.328C102.44 82.6386 103.341 83.5399 103.341 84.6512C103.341 85.7626 102.44 86.6639 101.328 86.6639H93.9846L91.1867 92.2598C90.8333 92.9658 90.1228 93.3732 89.3846 93.3732Z" fill="#666666"/>
<path d="M74.6283 93.3735C73.8901 93.3735 73.1793 92.9658 72.8266 92.2605L70.0287 86.6646H62.685C61.5732 86.6646 60.6724 85.7634 60.6724 84.652C60.6724 83.5406 61.5732 82.6393 62.685 82.6393H71.2725C72.0349 82.6393 72.7316 83.0701 73.0726 83.7519L76.4268 90.4608C76.924 91.4551 76.521 92.6639 75.5272 93.161C75.2378 93.3051 74.9302 93.3735 74.6283 93.3735Z" fill="#666666"/>
<path d="M66.5762 88.8198C65.4645 88.8198 64.5636 87.9186 64.5636 86.8072V84.6516C64.5636 83.5403 65.4645 82.639 66.5762 82.639C67.688 82.639 68.5889 83.5403 68.5889 84.6516V86.8072C68.5889 87.919 67.6876 88.8198 66.5762 88.8198Z" fill="#666666"/>
<path d="M97.4367 88.8198C96.3249 88.8198 95.4241 87.9185 95.4241 86.8072V84.6516C95.4241 83.5403 96.3249 82.639 97.4367 82.639C98.5485 82.639 99.4493 83.5403 99.4493 84.6516V86.8072C99.4493 87.919 98.5481 88.8198 97.4367 88.8198Z" fill="#666666"/>
<path d="M85.3022 97.8106C85.1693 97.8106 85.0405 97.7985 84.9077 97.7704C84.7789 97.7462 84.6541 97.706 84.5334 97.6536C84.4126 97.6053 84.2959 97.545 84.1872 97.4725C84.0745 97.396 83.9738 97.3115 83.8813 97.2189C83.7887 97.1263 83.7042 97.0257 83.6277 96.913C83.5548 96.8043 83.4948 96.6876 83.4425 96.5668C83.3942 96.4461 83.3535 96.3173 83.3298 96.1884C83.3016 96.0596 83.2896 95.9268 83.2896 95.798C83.2896 95.2667 83.5025 94.7474 83.8813 94.3731C83.9734 94.2805 84.0741 94.1959 84.1872 94.1235C84.2963 94.051 84.413 93.9907 84.5334 93.9383C84.6541 93.89 84.7785 93.8498 84.9077 93.8256C85.1693 93.7733 85.4354 93.7733 85.6967 93.8256C85.8255 93.8498 85.9502 93.89 86.071 93.9383C86.1962 93.9907 86.3129 94.051 86.4212 94.1235C86.5303 94.1959 86.6345 94.2805 86.7275 94.3731C87.1019 94.7474 87.3152 95.2667 87.3152 95.798C87.3152 95.9268 87.3031 96.0596 87.2746 96.1884C87.2504 96.3173 87.2102 96.4461 87.1619 96.5668C87.1095 96.6876 87.0495 96.8043 86.9767 96.913C86.9042 97.0257 86.8197 97.1263 86.7275 97.2189C86.6349 97.3115 86.5303 97.396 86.4212 97.4725C86.3125 97.545 86.1958 97.6053 86.071 97.6536C85.9502 97.706 85.8259 97.7462 85.6967 97.7704C85.5674 97.7985 85.435 97.8106 85.3022 97.8106Z" fill="white"/>
<path d="M105.222 60.0915L101.252 59.4277C103.465 46.1955 116.248 36.522 116.791 36.1163L119.198 39.3425L117.995 37.7296L119.2 39.3413C119.08 39.4315 107.165 48.4726 105.222 60.0915Z" fill="#666666"/>
<path d="M69.1488 25.6111C68.2625 25.6111 67.4502 25.0206 67.2075 24.1242C66.9168 23.0511 67.5512 21.9461 68.6243 21.6555C72.9656 20.4797 77.4691 19.8836 82.0087 19.8836C84.7785 19.8836 87.5588 20.1074 90.2722 20.549C91.3695 20.7273 92.1142 21.7618 91.9358 22.8587C91.7575 23.9555 90.7214 24.7006 89.6261 24.5219C87.1257 24.1149 84.5628 23.9088 82.0087 23.9088C77.8241 23.9088 73.6752 24.4579 69.6761 25.5411C69.4998 25.5882 69.3231 25.6111 69.1488 25.6111Z" fill="white"/>
<path d="M131.068 72.9675C129.956 72.9675 129.055 72.0663 129.055 70.9549C129.055 61.2774 126.14 51.9818 120.624 44.0738C115.231 36.3421 107.754 30.4628 99.0013 27.0707C97.9648 26.669 97.45 25.5033 97.8521 24.4667C98.2538 23.4306 99.4195 22.9158 100.456 23.3175C109.957 26.9994 118.073 33.3807 123.925 41.7713C129.915 50.358 133.081 60.4498 133.081 70.9549C133.08 72.0663 132.18 72.9675 131.068 72.9675Z" fill="white"/>
<path d="M58.7906 60.0915C56.8419 48.4368 44.9332 39.4319 44.8132 39.3425L47.2203 36.1163C47.7637 36.5216 60.5476 46.1955 62.7603 59.4277L58.7906 60.0915Z" fill="#666666"/>
</svg>
