<svg width="615" height="638" viewBox="0 0 615 638" fill="none" xmlns="http://www.w3.org/2000/svg">
<circle cx="572.599" cy="463.821" r="36.3575" fill="#FFCBBA" fill-opacity="0.3"/>
<path fill-rule="evenodd" clip-rule="evenodd" d="M572.604 502.602C572.612 502.602 572.621 502.602 572.629 502.602C572.637 502.602 572.645 502.602 572.653 502.602H572.604ZM575.861 500.708C575.861 501.657 576.672 502.406 577.613 502.285C587.57 501.008 596.346 495.954 602.458 488.606C603.328 487.56 602.549 486.04 601.188 486.04V486.04C600.678 486.04 600.197 486.273 599.869 486.664C594.299 493.299 586.35 497.87 577.335 499.062C576.502 499.172 575.861 499.869 575.861 500.708V500.708Z" fill="#332D57"/>
<circle cx="572.599" cy="463.821" r="29.8939" fill="#CD3D0D" stroke="#332D57" stroke-width="3.23178"/>
<mask id="mask0_43_4872" style="mask-type:alpha" maskUnits="userSpaceOnUse" x="544" y="435" width="57" height="58">
<circle cx="572.599" cy="463.821" r="28.278" fill="#F05927"/>
</mask>
<g mask="url(#mask0_43_4872)">
<circle cx="566.136" cy="463.821" r="28.278" fill="#F05927"/>
</g>
<path fill-rule="evenodd" clip-rule="evenodd" d="M562.904 443.238C562.904 442.042 561.686 441.239 560.636 441.811C555.294 444.721 551.128 449.519 549.036 455.309C548.668 456.329 549.458 457.358 550.542 457.358V457.358C551.265 457.358 551.898 456.884 552.151 456.207C553.97 451.323 557.488 447.267 561.987 444.758C562.541 444.448 562.904 443.873 562.904 443.238V443.238ZM572.599 488.867L572.575 488.867H572.623L572.599 488.867Z" fill="white"/>
<circle cx="548.765" cy="460.993" r="1.61589" fill="white"/>
<path fill-rule="evenodd" clip-rule="evenodd" d="M600.876 463.569C600.875 463.49 600.912 463.414 600.975 463.366C601.211 463.183 601.443 463 601.67 462.816C604.665 460.398 606.762 457.998 607.958 455.805C609.144 453.633 609.359 451.847 608.972 450.402C608.585 448.957 607.506 447.518 605.393 446.23C603.26 444.929 600.244 443.9 596.441 443.302C595.052 443.084 593.578 442.927 592.031 442.833C591.7 442.813 591.383 442.68 591.132 442.462C590.034 441.51 590.643 439.515 592.094 439.599C602.78 440.221 610.525 443.713 612.094 449.566C614.733 459.415 598.878 472.221 576.681 478.169C559.327 482.819 543.235 481.9 535.777 476.571C534.872 475.925 535.044 474.612 536.008 474.056V474.056C536.624 473.7 537.392 473.775 537.985 474.169C538.122 474.26 538.265 474.351 538.412 474.44C540.545 475.741 543.561 476.77 547.363 477.368C554.959 478.561 565.077 477.932 575.844 475.047C585.805 472.378 594.32 468.315 600.275 463.895C600.341 463.847 600.419 463.821 600.5 463.821H600.625C600.764 463.821 600.877 463.708 600.876 463.569ZM534.478 471.207C534.8 471.021 534.929 470.627 534.833 470.268V470.268C534.445 468.823 534.66 467.037 535.846 464.865C537.043 462.672 539.14 460.272 542.134 457.854C543.084 457.087 544.112 456.328 545.212 455.582C545.486 455.396 545.69 455.124 545.795 454.811C546.259 453.431 544.719 452.016 543.512 452.83C534.908 458.632 530.174 465.369 531.711 471.104V471.104C531.919 471.882 532.824 472.162 533.521 471.759L534.478 471.207Z" fill="#332D57"/>
<circle cx="565.732" cy="477.882" r="5.65561" fill="#FFD136"/>
<path fill-rule="evenodd" clip-rule="evenodd" d="M561.079 473.236C560.525 472.277 559.212 472.081 558.609 473.011C557.748 474.338 557.248 475.921 557.248 477.62C557.248 482.306 561.046 486.104 565.732 486.104C570.417 486.104 574.215 482.306 574.215 477.62C574.215 472.935 570.417 469.137 565.732 469.137C565.533 469.137 565.335 469.144 565.14 469.157C564.049 469.232 563.579 470.453 564.125 471.4L564.24 471.598C564.539 472.115 565.134 472.369 565.732 472.369V472.369C568.632 472.369 570.983 474.72 570.983 477.62C570.983 480.521 568.632 482.872 565.732 482.872C562.831 482.872 560.48 480.521 560.48 477.62C560.48 476.781 560.677 475.988 561.027 475.285C561.349 474.637 561.441 473.863 561.079 473.236V473.236Z" fill="#332D57"/>
<mask id="path-11-inside-1_43_4872" fill="white">
<path d="M583.187 461.305C583.462 462.155 584.376 462.627 585.201 462.286C587.5 461.334 589.604 459.966 591.405 458.25C592.052 457.635 591.991 456.607 591.326 456.012V456.012C590.66 455.417 589.643 455.48 588.987 456.086C587.58 457.386 585.962 458.438 584.203 459.198C583.383 459.552 582.913 460.456 583.187 461.305V461.305Z"/>
</mask>
<path d="M583.187 461.305C583.462 462.155 584.376 462.627 585.201 462.286C587.5 461.334 589.604 459.966 591.405 458.25C592.052 457.635 591.991 456.607 591.326 456.012V456.012C590.66 455.417 589.643 455.48 588.987 456.086C587.58 457.386 585.962 458.438 584.203 459.198C583.383 459.552 582.913 460.456 583.187 461.305V461.305Z" stroke="#332D57" stroke-width="6.46355" mask="url(#path-11-inside-1_43_4872)"/>
<circle cx="576.265" cy="433.523" r="3.63575" fill="#FFD136" stroke="#332D57" stroke-width="3.23178"/>
<circle cx="606.159" cy="481.192" r="4.44369" fill="#F17940"/>
<circle cx="541.927" cy="429.484" r="2.01986" transform="rotate(180 541.927 429.484)" fill="#F96E52"/>
<circle cx="537.08" cy="434.735" r="2.42383" transform="rotate(180 537.08 434.735)" fill="#FECD64"/>
<circle cx="543.139" cy="435.947" r="1.21192" transform="rotate(180 543.139 435.947)" fill="#FECD64"/>
<circle cx="580.305" cy="462.609" r="1.21192" fill="#332D57"/>
<circle cx="558.086" cy="464.225" r="0.807944" fill="#332D57"/>
<circle cx="558.894" cy="459.781" r="1.61589" fill="#332D57"/>
<circle cx="47.417" cy="475.821" r="36.3575" fill="white" fill-opacity="0.3"/>
<circle cx="47.417" cy="475.821" r="29.8939" fill="#89BFF2" stroke="#332D57" stroke-width="3.23178"/>
<mask id="mask1_43_4872" style="mask-type:alpha" maskUnits="userSpaceOnUse" x="19" y="447" width="57" height="58">
<circle cx="47.4169" cy="475.821" r="28.278" fill="#D2E1FB"/>
</mask>
<g mask="url(#mask1_43_4872)">
<circle cx="40.9534" cy="475.821" r="28.278" fill="#D2E1FB"/>
</g>
<mask id="mask2_43_4872" style="mask-type:alpha" maskUnits="userSpaceOnUse" x="19" y="447" width="57" height="58">
<circle cx="47.4169" cy="475.821" r="28.278" fill="#89BFF2"/>
</mask>
<g mask="url(#mask2_43_4872)">
<circle cx="55.4963" cy="450.371" r="3.63575" transform="rotate(-90 55.4963 450.371)" fill="#C5E0EF" stroke="#332D57" stroke-width="2.42383"/>
<circle cx="50.2448" cy="502.887" r="4.03972" transform="rotate(-90 50.2448 502.887)" stroke="#332D57" stroke-width="2.42383"/>
</g>
<path fill-rule="evenodd" clip-rule="evenodd" d="M37.8703 455.238C37.8703 454.042 36.6527 453.239 35.6027 453.811C30.2603 456.721 26.0949 461.519 24.0029 467.309C23.6346 468.329 24.4245 469.358 25.5084 469.358V469.358C26.2316 469.358 26.8646 468.884 27.1171 468.207C28.9363 463.323 32.4547 459.267 36.9533 456.758C37.5079 456.448 37.8703 455.873 37.8703 455.238V455.238Z" fill="white"/>
<circle cx="23.7312" cy="472.993" r="1.61589" fill="white"/>
<path fill-rule="evenodd" clip-rule="evenodd" d="M19.3115 469.824C19.658 469.61 19.9052 469.27 20.0053 468.875C20.3476 467.524 18.9203 466.272 17.7326 467.001C9.88611 471.818 5.42948 477.608 6.38229 483.012C8.15294 493.054 27.9344 497.959 50.5653 493.969C73.1963 489.978 90.1069 478.603 88.3362 468.561C87.9551 466.399 86.7394 464.476 84.8403 462.828C84.1408 462.221 83.0845 462.44 82.5904 463.224L81.89 464.334C81.8232 464.44 81.8509 464.579 81.9516 464.654V464.654C83.9444 466.121 84.8938 467.649 85.1536 469.122C85.4133 470.595 85.0437 472.356 83.6731 474.416C82.2898 476.496 79.9914 478.704 76.7976 480.853C70.4175 485.144 60.9815 488.85 50.0041 490.786C39.0267 492.722 28.8923 492.466 21.4291 490.616C17.6931 489.689 14.7781 488.4 12.7669 486.919C10.7742 485.451 9.82471 483.924 9.56497 482.45C9.30522 480.977 9.67485 479.217 11.0455 477.156C12.4287 475.076 14.7271 472.868 17.921 470.72C18.3695 470.418 18.8332 470.119 19.3115 469.824ZM79.7337 461.695C79.2954 462.39 78.4098 462.645 77.647 462.34C76.3507 461.821 74.896 461.355 73.2895 460.957C72.8049 460.837 72.3092 460.723 71.8027 460.617C71.4045 460.533 71.0552 460.295 70.827 459.959C70.0447 458.804 70.9634 457.142 72.3288 457.425C74.8003 457.938 77.0555 458.606 79.0452 459.419C79.9424 459.786 80.2508 460.875 79.7337 461.695V461.695Z" fill="#332D57"/>
<mask id="mask3_43_4872" style="mask-type:alpha" maskUnits="userSpaceOnUse" x="15" y="444" width="64" height="64">
<circle cx="47.417" cy="475.821" r="29.8939" fill="#89BFF2" stroke="#332D57" stroke-width="3.23178"/>
</mask>
<g mask="url(#mask3_43_4872)">
<path fill-rule="evenodd" clip-rule="evenodd" d="M51.6566 480.897C51.347 482.052 52.3475 483.134 53.5183 482.889C70.5067 479.335 83.7787 471.645 87.4491 463.778C88.0138 462.567 86.8482 461.456 85.558 461.802V461.802C85.0089 461.949 84.5681 462.348 84.3029 462.851C84.1223 463.193 83.913 463.545 83.673 463.905C82.2898 465.985 79.9914 468.193 76.7975 470.342C70.9885 474.249 62.6463 477.671 52.9138 479.713C52.3057 479.841 51.8174 480.297 51.6566 480.897V480.897ZM15.9478 481.185C16.0415 480.835 15.715 480.516 15.365 480.61V480.61C14.9351 480.725 14.8742 481.306 15.2837 481.48C15.2955 481.485 15.3072 481.49 15.319 481.495C15.5791 481.605 15.8746 481.457 15.9478 481.185V481.185Z" fill="#332D57"/>
<path fill-rule="evenodd" clip-rule="evenodd" d="M60.6491 495.184C60.3146 496.433 61.4865 497.553 62.7057 497.125C74.2022 493.085 82.6983 487.142 85.5204 481.094C86.0852 479.884 84.9199 478.771 83.6297 479.117V479.117C83.0806 479.264 82.6398 479.663 82.3746 480.166C82.194 480.508 81.9848 480.86 81.7448 481.221C80.3615 483.301 78.0631 485.508 74.8693 487.657C71.3337 490.035 66.8596 492.234 61.7048 494.051C61.1882 494.233 60.7909 494.655 60.6491 495.184V495.184ZM23.7074 500.073C23.9573 499.141 23.3348 498.201 22.384 498.031C21.3845 497.853 20.4223 497.648 19.5008 497.42C18.9689 497.288 18.4537 497.149 17.9554 497.003C17.6237 496.905 17.2718 496.897 16.9379 496.987V496.987C15.2979 497.426 15.1486 499.533 16.7744 500.023C18.3706 500.504 20.0905 500.908 21.9163 501.231C22.7227 501.373 23.4954 500.864 23.7074 500.073V500.073Z" fill="#332D57"/>
</g>
<circle cx="70.8474" cy="443.907" r="4.03972" fill="#F7931B" stroke="#332D57" stroke-width="3.23178"/>
<circle cx="78.9269" cy="497.635" r="2.42383" fill="#332D57"/>
<circle cx="47.821" cy="482.689" r="1.61589" transform="rotate(-90 47.821 482.689)" fill="#332D57"/>
<circle cx="28.4303" cy="485.112" r="2.8278" transform="rotate(-90 28.4303 485.112)" fill="#D2E1FB" stroke="#332D57" stroke-width="2.42383"/>
<circle cx="38.9335" cy="467.742" r="5.25164" fill="#86B7E5"/>
<path fill-rule="evenodd" clip-rule="evenodd" d="M43.3773 467.742C43.3773 470.196 41.3877 472.185 38.9336 472.185C36.4794 472.185 34.4899 470.196 34.4899 467.742C34.4899 465.287 36.4794 463.298 38.9336 463.298C39.9134 463.298 40.8191 463.615 41.5538 464.152C41.9471 464.44 42.4399 464.594 42.9106 464.468V464.468C43.7869 464.233 44.1681 463.205 43.4894 462.603C42.2771 461.527 40.6816 460.874 38.9336 460.874C35.1407 460.874 32.066 463.949 32.066 467.742C32.066 471.534 35.1407 474.609 38.9336 474.609C42.7264 474.609 45.8011 471.534 45.8011 467.742V467.742C45.8011 467.116 45.1817 466.721 44.5777 466.883L43.8578 467.076C43.5641 467.155 43.3773 467.437 43.3773 467.742V467.742Z" fill="#332D57"/>
<circle cx="349.821" cy="594.821" r="36.3575" fill="white" fill-opacity="0.3"/>
<mask id="path-40-inside-2_43_4872" fill="white">
<path d="M357.028 558.362C357.201 557.486 356.631 556.632 355.749 556.496C346.689 555.094 337.421 556.949 329.598 561.73C328.836 562.195 328.639 563.203 329.136 563.944V563.944C329.633 564.686 330.636 564.881 331.399 564.418C338.507 560.111 346.903 558.43 355.122 559.67C356.005 559.803 356.855 559.238 357.028 558.362V558.362Z"/>
</mask>
<path d="M357.028 558.362C357.201 557.486 356.631 556.632 355.749 556.496C346.689 555.094 337.421 556.949 329.598 561.73C328.836 562.195 328.639 563.203 329.136 563.944V563.944C329.633 564.686 330.636 564.881 331.399 564.418C338.507 560.111 346.903 558.43 355.122 559.67C356.005 559.803 356.855 559.238 357.028 558.362V558.362Z" stroke="#332D57" stroke-width="6.46355" mask="url(#path-40-inside-2_43_4872)"/>
<mask id="path-41-inside-3_43_4872" fill="white">
<path d="M313.254 583.341C312.376 583.066 311.437 583.553 311.198 584.443C309.682 590.083 309.419 595.994 310.434 601.759C311.45 607.524 313.717 612.989 317.069 617.772C317.597 618.526 318.646 618.664 319.378 618.104V618.104C320.109 617.545 320.245 616.501 319.72 615.745C316.691 611.388 314.64 606.419 313.718 601.181C312.795 595.942 313.024 590.572 314.382 585.442C314.617 584.552 314.133 583.617 313.254 583.341V583.341Z"/>
</mask>
<path d="M313.254 583.341C312.376 583.066 311.437 583.553 311.198 584.443C309.682 590.083 309.419 595.994 310.434 601.759C311.45 607.524 313.717 612.989 317.069 617.772C317.597 618.526 318.646 618.664 319.378 618.104V618.104C320.109 617.545 320.245 616.501 319.72 615.745C316.691 611.388 314.64 606.419 313.718 601.181C312.795 595.942 313.024 590.572 314.382 585.442C314.617 584.552 314.133 583.617 313.254 583.341V583.341Z" stroke="#332D57" stroke-width="6.46355" mask="url(#path-41-inside-3_43_4872)"/>
<mask id="path-42-inside-4_43_4872" fill="white">
<path d="M366.665 561.693C367.07 560.897 366.754 559.92 365.942 559.549C364.797 559.026 363.628 558.559 362.438 558.149C361.593 557.859 360.692 558.349 360.437 559.205V559.205C360.182 560.06 360.67 560.957 361.513 561.251C362.518 561.601 363.506 561.995 364.476 562.434C365.289 562.802 366.261 562.488 366.665 561.693V561.693Z"/>
</mask>
<path d="M366.665 561.693C367.07 560.897 366.754 559.92 365.942 559.549C364.797 559.026 363.628 558.559 362.438 558.149C361.593 557.859 360.692 558.349 360.437 559.205V559.205C360.182 560.06 360.67 560.957 361.513 561.251C362.518 561.601 363.506 561.995 364.476 562.434C365.289 562.802 366.261 562.488 366.665 561.693V561.693Z" stroke="#332D57" stroke-width="6.46355" mask="url(#path-42-inside-4_43_4872)"/>
<circle cx="349.821" cy="594.821" r="29.8939" fill="#1A8CD0"/>
<circle cx="324.371" cy="574.623" r="6.86752" fill="#FAAF78" stroke="#332D57" stroke-width="3.23178"/>
<path fill-rule="evenodd" clip-rule="evenodd" d="M378.099 594.821C378.099 610.439 365.439 623.099 349.821 623.099C334.204 623.099 321.543 610.439 321.543 594.821C321.543 579.204 334.204 566.543 349.821 566.543C355.687 566.543 361.136 568.329 365.654 571.388C366.294 571.821 367.149 571.791 367.729 571.28V571.28C368.497 570.604 368.463 569.394 367.619 568.816C362.555 565.343 356.425 563.311 349.821 563.311C332.419 563.311 318.311 577.419 318.311 594.821C318.311 612.223 332.419 626.331 349.821 626.331C367.223 626.331 381.331 612.223 381.331 594.821C381.331 590.663 380.525 586.693 379.062 583.058C378.656 582.051 377.381 581.794 376.566 582.511V582.511C376.026 582.986 375.862 583.756 376.127 584.424C377.4 587.643 378.099 591.15 378.099 594.821Z" fill="#332D57"/>
<mask id="mask4_43_4872" style="mask-type:alpha" maskUnits="userSpaceOnUse" x="321" y="566" width="58" height="58">
<circle cx="349.821" cy="594.821" r="28.278" fill="#53B4EF"/>
</mask>
<g mask="url(#mask4_43_4872)">
<circle cx="343.357" cy="594.821" r="28.278" fill="#53B4EF"/>
</g>
<path fill-rule="evenodd" clip-rule="evenodd" d="M340.274 574.238C340.274 573.042 339.057 572.239 338.007 572.811C332.664 575.721 328.499 580.519 326.407 586.309C326.039 587.329 326.829 588.358 327.912 588.358V588.358C328.636 588.358 329.269 587.884 329.521 587.206C331.34 582.323 334.859 578.267 339.357 575.758C339.912 575.448 340.274 574.873 340.274 574.238V574.238Z" fill="white"/>
<mask id="path-49-inside-5_43_4872" fill="white">
<path d="M328.478 600.595C327.608 600.795 327.059 601.665 327.327 602.516C328.228 605.37 329.752 607.989 331.789 610.182C332.396 610.836 333.424 610.788 334.028 610.13V610.13C334.631 609.472 334.581 608.455 333.983 607.791C332.417 606.053 331.228 604.009 330.49 601.789C330.208 600.942 329.348 600.395 328.478 600.595V600.595Z"/>
</mask>
<path d="M328.478 600.595C327.608 600.795 327.059 601.665 327.327 602.516C328.228 605.37 329.752 607.989 331.789 610.182C332.396 610.836 333.424 610.788 334.028 610.13V610.13C334.631 609.472 334.581 608.455 333.983 607.791C332.417 606.053 331.228 604.009 330.49 601.789C330.208 600.942 329.348 600.395 328.478 600.595V600.595Z" stroke="#332D57" stroke-width="6.46355" mask="url(#path-49-inside-5_43_4872)"/>
<mask id="path-50-inside-6_43_4872" fill="white">
<path d="M358.113 595.034C358.744 595.665 359.773 595.669 360.352 594.989C361.965 593.095 363.214 590.918 364.037 588.57C364.332 587.727 363.81 586.841 362.946 586.614V586.614C362.083 586.387 361.206 586.907 360.898 587.745C360.238 589.543 359.277 591.217 358.057 592.695C357.489 593.383 357.482 594.402 358.113 595.034V595.034Z"/>
</mask>
<path d="M358.113 595.034C358.744 595.665 359.773 595.669 360.352 594.989C361.965 593.095 363.214 590.918 364.037 588.57C364.332 587.727 363.81 586.841 362.946 586.614V586.614C362.083 586.387 361.206 586.907 360.898 587.745C360.238 589.543 359.277 591.217 358.057 592.695C357.489 593.383 357.482 594.402 358.113 595.034V595.034Z" stroke="#332D57" stroke-width="6.46355" mask="url(#path-50-inside-6_43_4872)"/>
<circle cx="326.135" cy="591.993" r="1.61589" fill="white"/>
<circle cx="328.007" cy="598.053" r="1.21192" fill="#332D57"/>
<circle cx="355.881" cy="596.437" r="1.21192" fill="#332D57"/>
<circle cx="335.682" cy="596.033" r="2.01986" fill="#332D57"/>
<circle cx="375.824" cy="626.331" r="2.01986" fill="#FAAF78"/>
<circle cx="383.755" cy="619.867" r="2.42383" fill="#332D57"/>
<circle cx="370.828" cy="573.411" r="4.44369" fill="#B8DEFF" stroke="#332D57" stroke-width="3.23178"/>
<circle cx="335.682" cy="621.483" r="3.23178" fill="#B8DEFF" stroke="#332D57" stroke-width="3.23178"/>
<circle cx="42.1729" cy="188.078" r="37.0777" fill="#B341FF" fill-opacity="0.3"/>
<circle cx="42.1727" cy="188.078" r="30.4861" fill="#8C12DC" stroke="#332D57" stroke-width="3.29579"/>
<mask id="mask5_43_4872" style="mask-type:alpha" maskUnits="userSpaceOnUse" x="13" y="159" width="59" height="58">
<circle cx="42.1728" cy="188.078" r="28.8382" fill="#B341FF"/>
</mask>
<g mask="url(#mask5_43_4872)">
<circle cx="35.5812" cy="188.078" r="28.8382" fill="#B341FF"/>
</g>
<path fill-rule="evenodd" clip-rule="evenodd" d="M32.2854 167.086C32.2854 165.867 31.0437 165.048 29.9729 165.632C24.5247 168.599 20.2767 173.492 18.1433 179.397C17.7677 180.437 18.5732 181.486 19.6786 181.486V181.486C20.4162 181.486 21.0616 181.003 21.3191 180.312C23.1744 175.332 26.7625 171.196 31.3503 168.636C31.9158 168.321 32.2854 167.734 32.2854 167.086V167.086Z" fill="white"/>
<circle cx="17.8663" cy="185.194" r="1.6479" fill="white"/>
<path fill-rule="evenodd" clip-rule="evenodd" d="M71.7685 164.517C71.7081 161.994 70.9871 160.307 69.9085 159.229C68.8298 158.15 67.143 157.429 64.6198 157.369C62.0732 157.308 58.8843 157.936 55.2214 159.348C54.2668 159.715 53.2901 160.132 52.2955 160.598C51.9302 160.768 51.5144 160.791 51.1311 160.666C49.7716 160.222 49.485 158.278 50.7792 157.668C60.0013 153.328 68.0625 152.722 72.239 156.898C79.592 164.251 72.1191 183.646 55.5479 200.217C38.9767 216.788 19.5822 224.261 12.2292 216.908C8.38502 213.064 8.59305 205.929 12.0349 197.626C12.5873 196.294 14.5584 196.515 15.0483 197.871C15.1829 198.244 15.1759 198.653 15.0253 199.019C14.9052 199.312 14.7896 199.602 14.6785 199.89C13.2671 203.553 12.6386 206.742 12.6996 209.289C12.76 211.812 13.481 213.499 14.5597 214.578C15.6383 215.656 17.3251 216.377 19.8484 216.438C22.3949 216.499 25.5838 215.87 29.2467 214.459C36.564 211.639 45.1794 205.925 53.2174 197.886C61.2555 189.848 66.9702 181.233 69.7896 173.916C71.201 170.253 71.8295 167.064 71.7685 164.517Z" fill="#332D57"/>
<path fill-rule="evenodd" clip-rule="evenodd" d="M31.1117 204.361C30.7505 204.934 30.0704 205.226 29.408 205.085C11.748 201.328 -0.721726 192.919 0.0324471 184.299C0.516514 178.766 6.35057 174.265 15.2387 171.583C16.6014 171.172 17.6857 172.779 16.992 174.022C16.7904 174.383 16.4566 174.657 16.0609 174.778C15.5775 174.925 15.1048 175.078 14.643 175.236C10.9299 176.51 8.08303 178.078 6.17148 179.762C4.27742 181.43 3.44865 183.066 3.3157 184.586C3.18275 186.106 3.71474 187.861 5.29034 189.833C6.8805 191.823 9.41176 193.862 12.8474 195.761C17.3946 198.274 23.2818 200.406 30.0309 201.848C31.1621 202.089 31.7289 203.383 31.1117 204.361V204.361ZM35.3589 203.806C35.7084 203.252 36.3507 202.956 37.0003 203.041C38.2956 203.21 39.6132 203.354 40.9505 203.471C52.2748 204.462 62.548 203.302 69.9655 200.758C73.6787 199.485 76.5256 197.916 78.4371 196.233C80.3312 194.564 81.1599 192.928 81.2929 191.408C81.4258 189.889 80.8938 188.133 79.3182 186.161C77.7281 184.171 75.1968 182.132 71.7612 180.234C71.3778 180.022 70.9848 179.813 70.5826 179.606C69.9461 179.28 69.4603 178.721 69.2116 178.05C68.773 176.868 69.9541 175.626 71.0888 176.176C79.8076 180.405 85.0741 186.004 84.5761 191.695C83.6698 202.055 64.0094 208.797 40.6633 206.754C39.2589 206.631 37.8731 206.479 36.509 206.3C35.3257 206.145 34.7222 204.815 35.3589 203.806V203.806Z" fill="#332D57"/>
<circle cx="11.6867" cy="156.355" r="2.88382" fill="#F7931B"/>
<circle cx="17.8663" cy="153.472" r="1.23592" fill="#FECD64"/>
<circle cx="68.5391" cy="220.211" r="2.05987" fill="#F7931B"/>
<circle cx="73.4827" cy="214.856" r="2.47184" fill="#FECD64"/>
<circle cx="67.3032" cy="213.62" r="1.23592" fill="#FECD64"/>
<circle cx="40.5248" cy="194.257" r="1.6479" transform="rotate(-90 40.5248 194.257)" fill="#332D57"/>
<circle cx="36.4051" cy="190.137" r="2.05987" transform="rotate(-90 36.4051 190.137)" fill="#332D57"/>
<circle cx="35.1692" cy="195.905" r="0.823948" transform="rotate(-90 35.1692 195.905)" fill="#332D57"/>
<circle cx="529.599" cy="195.821" r="36.3575" fill="#FFC240" fill-opacity="0.3"/>
<circle cx="529.599" cy="195.821" r="29.8939" fill="#F7931B" stroke="#332D57" stroke-width="3.23178"/>
<mask id="mask6_43_4872" style="mask-type:alpha" maskUnits="userSpaceOnUse" x="501" y="167" width="57" height="58">
<circle cx="529.599" cy="195.821" r="28.278" fill="#FFC240"/>
</mask>
<g mask="url(#mask6_43_4872)">
<circle cx="523.136" cy="195.821" r="28.278" fill="#FFC240"/>
</g>
<path fill-rule="evenodd" clip-rule="evenodd" d="M519.904 175.238C519.904 174.042 518.686 173.239 517.636 173.811C512.294 176.721 508.129 181.519 506.037 187.309C505.668 188.329 506.458 189.358 507.542 189.358V189.358C508.265 189.358 508.898 188.884 509.151 188.207C510.97 183.323 514.488 179.267 518.987 176.758C519.542 176.448 519.904 175.873 519.904 175.238V175.238Z" fill="white"/>
<circle cx="505.765" cy="192.993" r="1.61589" fill="white"/>
<path fill-rule="evenodd" clip-rule="evenodd" d="M557.876 195.569C557.876 195.49 557.912 195.414 557.975 195.366C558.211 195.183 558.443 195 558.67 194.816C561.665 192.398 563.762 189.998 564.958 187.805C566.144 185.633 566.359 183.847 565.972 182.402C565.585 180.957 564.506 179.518 562.393 178.23C560.26 176.929 557.244 175.9 553.441 175.302C552.052 175.084 550.578 174.927 549.031 174.833C548.7 174.813 548.383 174.68 548.132 174.462C547.034 173.51 547.643 171.515 549.094 171.599C559.78 172.221 567.525 175.713 569.094 181.566C571.733 191.415 555.878 204.221 533.681 210.169C516.327 214.819 500.235 213.9 492.777 208.571C491.872 207.925 492.044 206.612 493.008 206.056V206.056C493.624 205.7 494.392 205.775 494.985 206.169C495.122 206.26 495.265 206.351 495.412 206.44C497.545 207.741 500.561 208.77 504.363 209.368C511.959 210.561 522.077 209.932 532.844 207.047C542.805 204.378 551.32 200.315 557.275 195.895C557.341 195.847 557.419 195.821 557.5 195.821H557.625C557.765 195.821 557.878 195.708 557.876 195.569ZM491.478 203.207C491.8 203.021 491.929 202.627 491.833 202.268V202.268C491.445 200.823 491.66 199.037 492.846 196.865C494.043 194.672 496.14 192.272 499.134 189.854C500.084 189.087 501.112 188.328 502.212 187.582C502.486 187.396 502.69 187.124 502.795 186.811C503.259 185.431 501.719 184.016 500.512 184.83C491.908 190.632 487.174 197.369 488.711 203.104V203.104C488.919 203.882 489.824 204.162 490.521 203.759L491.478 203.207Z" fill="#332D57"/>
<path fill-rule="evenodd" clip-rule="evenodd" d="M555.179 209.152C554.727 209.245 554.337 209.529 554.107 209.928C553.437 211.092 554.35 212.615 555.666 212.351C561.491 211.18 565.866 208.914 567.979 205.679C568.637 204.672 567.79 203.496 566.587 203.496V203.496C565.929 203.496 565.339 203.87 564.931 204.385C564.341 205.131 563.512 205.856 562.393 206.538C560.596 207.634 558.172 208.537 555.179 209.152ZM567.862 201.477C566.929 201.477 566.202 200.666 566.021 199.752C565.853 198.903 565.511 197.974 564.958 196.962C563.762 194.77 561.665 192.37 558.67 189.951C552.688 185.12 543.611 180.606 532.844 177.721C522.077 174.836 511.959 174.207 504.363 175.4C500.561 175.997 497.545 177.027 495.412 178.327C493.299 179.616 492.22 181.055 491.833 182.5C491.445 183.945 491.66 185.731 492.846 187.903C494.043 190.096 496.14 192.495 499.134 194.914C499.64 195.323 500.168 195.729 500.718 196.132C501.102 196.414 501.336 196.856 501.362 197.332C501.432 198.648 499.971 199.589 498.906 198.811C491.327 193.276 487.273 187.031 488.711 181.664C491.35 171.814 511.484 168.651 533.681 174.599C553.52 179.915 568.292 190.709 569.323 199.975C569.416 200.814 568.706 201.477 567.862 201.477V201.477Z" fill="#332D57"/>
<circle cx="522.732" cy="209.882" r="5.65561" fill="#A8E5FE"/>
<path fill-rule="evenodd" clip-rule="evenodd" d="M518.692 205.538C518.692 204.013 517.07 203.122 516.115 204.311C514.947 205.764 514.248 207.611 514.248 209.621C514.248 214.306 518.047 218.104 522.732 218.104C527.417 218.104 531.215 214.306 531.215 209.621C531.215 205.841 528.743 202.638 525.328 201.542C524.394 201.242 523.54 202.023 523.54 203.004V203.004C523.54 203.825 524.156 204.498 524.903 204.837C526.72 205.663 527.983 207.494 527.983 209.621C527.983 212.521 525.632 214.872 522.732 214.872C519.831 214.872 517.48 212.521 517.48 209.621C517.48 208.605 517.768 207.657 518.267 206.854C518.515 206.455 518.692 206.008 518.692 205.538V205.538Z" fill="#332D57"/>
<circle cx="499.705" cy="164.715" r="2.8278" fill="#F7931B"/>
<circle cx="505.765" cy="161.887" r="1.21192" fill="#FECD64"/>
<circle cx="555.454" cy="227.331" r="2.01986" fill="#F7931B"/>
<circle cx="560.301" cy="222.079" r="2.42383" fill="#FECD64"/>
<circle cx="554.242" cy="220.867" r="1.21192" fill="#FECD64"/>
<circle cx="272.821" cy="42.8211" r="36.3575" fill="#D3FFFE" fill-opacity="0.3"/>
<mask id="path-91-inside-7_43_4872" fill="white">
<path d="M280.028 6.36172C280.201 5.48592 279.631 4.63204 278.749 4.49554C269.688 3.09371 260.421 4.94863 252.598 9.72983C251.836 10.1954 251.639 11.2027 252.136 11.9444V11.9444C252.633 12.6861 253.635 12.8811 254.399 12.4184C261.507 8.11098 269.903 6.43044 278.122 7.67014C279.004 7.80329 279.855 7.23752 280.028 6.36172V6.36172Z"/>
</mask>
<path d="M280.028 6.36172C280.201 5.48592 279.631 4.63204 278.749 4.49554C269.688 3.09371 260.421 4.94863 252.598 9.72983C251.836 10.1954 251.639 11.2027 252.136 11.9444V11.9444C252.633 12.6861 253.635 12.8811 254.399 12.4184C261.507 8.11098 269.903 6.43044 278.122 7.67014C279.004 7.80329 279.855 7.23752 280.028 6.36172V6.36172Z" stroke="#332D57" stroke-width="6.46355" mask="url(#path-91-inside-7_43_4872)"/>
<mask id="path-92-inside-8_43_4872" fill="white">
<path d="M236.254 31.3414C235.376 31.0657 234.437 31.5535 234.198 32.4426C232.682 38.0829 232.419 43.9938 233.434 49.7589C234.449 55.524 236.717 60.9891 240.069 65.772C240.597 66.526 241.646 66.6635 242.378 66.1042V66.1042C243.109 65.5449 243.245 64.5008 242.719 63.7448C239.691 59.3878 237.64 54.4193 236.717 49.1805C235.795 43.9417 236.024 38.5716 237.382 33.442C237.617 32.552 237.133 31.6172 236.254 31.3414V31.3414Z"/>
</mask>
<path d="M236.254 31.3414C235.376 31.0657 234.437 31.5535 234.198 32.4426C232.682 38.0829 232.419 43.9938 233.434 49.7589C234.449 55.524 236.717 60.9891 240.069 65.772C240.597 66.526 241.646 66.6635 242.378 66.1042V66.1042C243.109 65.5449 243.245 64.5008 242.719 63.7448C239.691 59.3878 237.64 54.4193 236.717 49.1805C235.795 43.9417 236.024 38.5716 237.382 33.442C237.617 32.552 237.133 31.6172 236.254 31.3414V31.3414Z" stroke="#332D57" stroke-width="6.46355" mask="url(#path-92-inside-8_43_4872)"/>
<mask id="path-93-inside-9_43_4872" fill="white">
<path d="M289.665 9.69268C290.07 8.89689 289.754 7.92049 288.942 7.54937C287.797 7.02614 286.628 6.55894 285.438 6.14945C284.593 5.85902 283.692 6.34914 283.437 7.20469V7.20469C283.182 8.06024 283.67 8.95696 284.513 9.25059C285.518 9.60052 286.506 9.99537 287.476 10.434C288.289 10.802 289.261 10.4885 289.665 9.69268V9.69268Z"/>
</mask>
<path d="M289.665 9.69268C290.07 8.89689 289.754 7.92049 288.942 7.54937C287.797 7.02614 286.628 6.55894 285.438 6.14945C284.593 5.85902 283.692 6.34914 283.437 7.20469V7.20469C283.182 8.06024 283.67 8.95696 284.513 9.25059C285.518 9.60052 286.506 9.99537 287.476 10.434C288.289 10.802 289.261 10.4885 289.665 9.69268V9.69268Z" stroke="#332D57" stroke-width="6.46355" mask="url(#path-93-inside-9_43_4872)"/>
<circle cx="272.821" cy="42.8212" r="29.8939" fill="#109B95"/>
<circle cx="272.821" cy="42.8211" r="29.8939" stroke="#332D57" stroke-width="3.23178"/>
<mask id="mask7_43_4872" style="mask-type:alpha" maskUnits="userSpaceOnUse" x="244" y="14" width="58" height="58">
<circle cx="272.821" cy="42.821" r="28.278" fill="#0FCDC8"/>
</mask>
<g mask="url(#mask7_43_4872)">
<circle cx="266.357" cy="42.821" r="28.278" fill="#0FCDC8"/>
</g>
<mask id="mask8_43_4872" style="mask-type:alpha" maskUnits="userSpaceOnUse" x="244" y="14" width="58" height="58">
<circle cx="272.821" cy="42.821" r="28.278" fill="#109B95"/>
</mask>
<g mask="url(#mask8_43_4872)">
<path d="M260.904 32.9236C257.874 31.9137 250.603 31.7117 247.775 24.8442C244.947 17.9767 240.099 33.0436 240.099 47.2646C240.099 54.1321 260.298 75.5427 263.732 70.695C271.811 56.354 241.508 51.3043 251.006 45.8507C255.479 45.0729 255.521 39.9273 254.377 37.9825C254.298 37.8489 254.282 37.6835 254.368 37.5539C256.241 34.702 263.86 33.909 260.904 32.9236Z" fill="#EFC928" stroke="#332D57" stroke-width="3.23178"/>
<path d="M277.668 27.2682C273.306 22.4205 285.815 19.0541 292.615 17.9768L304.735 32.3178C304.465 40.5992 303.038 57.3237 299.483 57.97C295.039 58.778 294.029 40.8012 290.798 49.4866C289.285 55.9482 285.714 59.8832 283.333 61.037C281.846 61.7574 281.434 59.9472 281.577 58.3013C282.169 51.4937 277.313 45.1353 276.053 44.235C274.639 43.2251 276.659 40.3972 277.668 38.7814C278.678 37.1655 282.112 40.1953 287.97 40.8012C293.827 41.4072 296.251 38.5794 294.029 37.1655C291.992 35.8692 291.314 34.2333 291.682 31.3238C291.749 30.7886 291.708 30.1918 291.285 29.8569C288.914 27.9784 282.691 32.8491 277.668 27.2682Z" fill="#EFC928" stroke="#332D57" stroke-width="3.23178"/>
</g>
<path fill-rule="evenodd" clip-rule="evenodd" d="M263.274 22.2378C263.274 21.042 262.056 20.2393 261.006 20.8113C255.664 23.7211 251.499 28.5193 249.407 34.3092C249.039 35.3286 249.828 36.3576 250.912 36.3576V36.3576C251.636 36.3576 252.269 35.8841 252.521 35.2064C254.34 30.3232 257.858 26.2673 262.357 23.7576C262.912 23.4482 263.274 22.8728 263.274 22.2378V22.2378Z" fill="white"/>
<circle cx="249.135" cy="39.9933" r="1.61589" fill="white"/>
<circle cx="298.824" cy="74.3309" r="2.01986" fill="#332D57"/>
<circle cx="305.947" cy="67.8673" r="3.23178" fill="#EFC928"/>
<circle cx="255.854" cy="67.4634" r="4.44369" fill="#43C58C" stroke="#332D57" stroke-width="3.23178"/>
<circle cx="238.079" cy="15.351" r="4.03972" fill="#FBCE36"/>
<path fill-rule="evenodd" clip-rule="evenodd" d="M241.311 15.351C241.311 17.1359 239.864 18.5828 238.079 18.5828C237.572 18.5828 237.092 18.4659 236.665 18.2576C235.919 17.8938 235.016 17.6675 234.297 18.0826V18.0826C233.453 18.5698 233.194 19.6937 233.943 20.3178C235.064 21.2523 236.506 21.8146 238.079 21.8146C241.649 21.8146 244.543 18.9207 244.543 15.351C244.543 11.7813 241.649 8.88745 238.079 8.88745C234.51 8.88745 231.616 11.7813 231.616 15.351V15.351C231.616 16.0464 232.381 16.3901 232.983 16.0424L234.042 15.4309C234.565 15.1291 234.882 14.5827 235.128 14.0319C235.633 12.9046 236.764 12.1192 238.079 12.1192C239.864 12.1192 241.311 13.5661 241.311 15.351Z" fill="#332D57"/>
</svg>
