<svg width="48" height="49" viewBox="0 0 48 49" fill="none" xmlns="http://www.w3.org/2000/svg">
<g clip-path="url(#clip0_96_5419)">
<path d="M31.6326 16.1548L35.9704 8.62446L40.5423 11.2581L38.4767 14.844L33.9048 12.2103" fill="#F24125"/>
<path d="M36.7136 17.8369C38.371 19.4921 39.7025 21.4743 40.5994 23.68C41.4343 25.7326 41.8936 27.9776 41.8936 30.3291C41.8936 31.6016 41.7592 32.8431 41.5026 34.039C40.766 37.4861 39.0228 40.5598 36.5947 42.9382C35.4225 44.0876 34.089 45.0756 32.6323 45.8629C30.1359 47.2151 27.2775 47.9827 24.24 47.9827C23.9441 47.9827 23.6503 47.9755 23.3586 47.961C17.8475 47.6899 13.0016 44.8915 9.95385 40.7015C7.83612 37.7893 6.58638 34.2045 6.58638 30.3291C6.58638 30.1356 6.58948 29.9432 6.59569 29.7508C6.72294 25.7905 8.1558 22.1592 10.4763 19.2738C13.4465 15.5805 17.8734 13.1079 22.8837 12.7272C23.3317 12.693 23.7838 12.6755 24.24 12.6755C28.2137 12.6755 31.8802 13.9883 34.8307 16.2033C35.497 16.703 36.126 17.2492 36.7136 17.8369Z" fill="#FCBC1D"/>
<path opacity="0.25" d="M25.7513 47.022C23.6863 46.2927 21.7972 45.1888 20.1668 43.7932C16.3813 40.555 13.9822 35.7444 13.9822 30.373C13.9822 25.6099 15.8692 21.2865 18.9356 18.1114C20.6251 16.362 22.6725 14.9602 24.9599 14.0249C25.9137 13.6354 26.9096 13.3279 27.9381 13.1086C26.7454 12.8543 25.5087 12.7193 24.2401 12.7193C21.8772 12.7193 19.6239 13.1838 17.5641 14.0249C15.2767 14.9602 13.2294 16.362 11.5399 18.1114C8.47351 21.2865 6.58649 25.6099 6.58649 30.373C6.58649 35.7444 8.98562 40.555 12.7711 43.7932C14.4015 45.1888 16.2906 46.2927 18.3556 47.022C20.196 47.6728 22.1772 48.0266 24.2401 48.0266C25.508 48.0266 26.7446 47.8921 27.937 47.638C27.1899 47.4787 26.4601 47.2726 25.7513 47.022Z" fill="black"/>
<path opacity="0.25" d="M32.5257 26.1805C32.273 24.9524 32.6442 23.787 33.383 23.2269C33.5842 23.0752 33.8123 22.9676 34.063 22.9156C35.2344 22.6752 36.4428 23.7465 36.7641 25.3093C37.0846 26.8712 36.3974 28.3327 35.226 28.5731C34.8515 28.6509 34.4712 28.5929 34.1199 28.4279C33.3721 28.077 32.7447 27.2424 32.5257 26.1805Z" fill="black"/>
<path d="M32.5257 26.1805C32.273 24.9524 32.6442 23.787 33.383 23.2269C34.1307 23.5779 34.7599 24.4128 34.9771 25.4743C35.2298 26.7026 34.8586 27.8679 34.1198 28.428C33.3721 28.077 32.7447 27.2424 32.5257 26.1805Z" fill="#FCBC1D"/>
<path d="M34.8938 29.1247C34.5598 29.1247 34.2225 29.0478 33.8999 28.8962C33.6413 28.7748 33.5302 28.4667 33.6517 28.2082C33.7731 27.9495 34.0813 27.8385 34.3397 27.9599C34.5996 28.0819 34.8696 28.1191 35.1208 28.0668C35.5247 27.984 35.8674 27.682 36.0866 27.2165C36.3295 26.7007 36.3902 26.0603 36.2574 25.4135C35.9986 24.1549 35.0411 23.2427 34.167 23.4224C33.999 23.4573 33.8395 23.5306 33.6944 23.6401C33.093 24.096 32.8264 25.0754 33.0324 26.0764C33.09 26.3562 32.9097 26.6297 32.6298 26.6873C32.3491 26.745 32.0765 26.5645 32.019 26.2848C31.7302 24.88 32.1429 23.518 33.0706 22.8148C33.3399 22.6118 33.638 22.4757 33.9579 22.4093C35.407 22.1117 36.8927 23.3662 37.2707 25.2054C37.4482 26.0698 37.36 26.9406 37.0226 27.6574C36.661 28.425 36.0599 28.9303 35.33 29.0801C35.1863 29.1098 35.0403 29.1247 34.8938 29.1247Z" fill="#333333"/>
<path d="M36.8272 22.3959C36.6572 22.3959 36.4909 22.3123 36.392 22.1589C35.7357 21.1409 34.9562 20.2014 34.0753 19.3666C33.868 19.1701 33.8592 18.8427 34.0558 18.6353C34.252 18.4281 34.5797 18.4192 34.787 18.6157C35.7279 19.5073 36.5604 20.5109 37.2614 21.5983C37.4162 21.8384 37.3471 22.1586 37.107 22.3134C37.0204 22.3692 36.9232 22.3959 36.8272 22.3959Z" fill="white"/>
<path d="M34.3574 42.196C34.2192 42.196 34.0814 42.1409 33.9796 42.0321C33.7844 41.8234 33.7954 41.4961 34.0039 41.301C37.0429 38.4578 38.7859 34.4482 38.7859 30.3002C38.7859 29.3967 38.705 28.4913 38.5454 27.6093C38.4945 27.3282 38.6812 27.059 38.9622 27.0081C39.2424 26.9569 39.5124 27.1438 39.5634 27.4249C39.734 28.3676 39.8205 29.335 39.8205 30.3001C39.8205 34.7333 37.9581 39.0183 34.7107 42.0564C34.6111 42.1497 34.4841 42.196 34.3574 42.196Z" fill="white"/>
<path d="M32.1817 43.899C32.0123 43.899 31.8464 43.816 31.7473 43.6634C31.5918 43.4238 31.6598 43.1034 31.8995 42.9479C32.1638 42.7763 32.4257 42.5945 32.678 42.4072C32.9076 42.2369 33.2315 42.2849 33.4017 42.5144C33.572 42.7438 33.524 43.0679 33.2945 43.238C33.0249 43.4382 32.745 43.6325 32.4629 43.8156C32.3759 43.872 32.2782 43.899 32.1817 43.899Z" fill="white"/>
<path d="M24.24 48.5C14.2206 48.5 6.0691 40.3485 6.0691 30.3291C6.0691 20.3096 14.2206 12.1582 24.24 12.1582C34.2595 12.1582 42.4109 20.3096 42.4109 30.3291C42.4109 40.3485 34.2595 48.5 24.24 48.5ZM24.24 13.1927C14.791 13.1927 7.10365 20.8801 7.10365 30.3291C7.10365 39.7781 14.791 47.4654 24.24 47.4654C33.689 47.4654 41.3764 39.7781 41.3764 30.3291C41.3764 20.8801 33.689 13.1927 24.24 13.1927Z" fill="#333333"/>
<path opacity="0.25" d="M27.1898 31.0037C27.1898 32.8545 25.6887 34.3557 23.8379 34.3557C23.4747 34.3557 23.1251 34.2977 22.7971 34.1902C24.1379 33.7525 25.1073 32.4914 25.1073 31.0037C25.1073 29.516 24.1379 28.2549 22.7971 27.8173C23.1251 27.7097 23.4747 27.6518 23.8379 27.6518C25.6887 27.6518 27.1898 29.1529 27.1898 31.0037Z" fill="black"/>
<path d="M16.3624 38.9556C16.171 39.206 15.931 39.4067 15.6434 39.5432C14.3905 40.1381 12.7311 39.2639 11.9376 37.5921C11.1441 35.9202 11.5165 34.0818 12.7694 33.487C12.9587 33.397 13.1573 33.3411 13.3611 33.3163C14.5033 33.1756 15.8006 34.0187 16.4751 35.4392C17.0866 36.7282 17.0059 38.1145 16.3624 38.9556Z" fill="#FCBC1D"/>
<path opacity="0.25" d="M16.3624 38.9556C15.2192 39.0973 13.9219 38.2532 13.2484 36.8337C12.637 35.5447 12.7176 34.1574 13.3611 33.3163C14.5033 33.1756 15.8006 34.0187 16.4751 35.4392C17.0866 36.7282 17.0059 38.1145 16.3624 38.9556Z" fill="black"/>
<path d="M14.7986 40.249C14.3324 40.249 13.8494 40.124 13.3774 39.8754C12.5792 39.4551 11.902 38.7229 11.4705 37.8138C11.039 36.9046 10.8999 35.917 11.079 35.0329C11.2692 34.094 11.7906 33.3793 12.5473 33.0201C13.3039 32.6609 14.1873 32.7089 15.0351 33.1552C15.8332 33.5755 16.5104 34.3077 16.9419 35.2168C17.0644 35.475 16.9546 35.7835 16.6964 35.906C16.4382 36.0285 16.1297 35.9185 16.0073 35.6605C15.6711 34.952 15.1547 34.3874 14.553 34.0707C14.0007 33.7798 13.446 33.7387 12.9909 33.9547C12.5358 34.1707 12.2168 34.6265 12.093 35.2383C11.958 35.9046 12.0689 36.6617 12.4051 37.3702C12.7413 38.0786 13.2578 38.6433 13.8594 38.9601C14.4116 39.251 14.9665 39.2921 15.4216 39.076C15.8767 38.86 16.1955 38.4041 16.3195 37.7925C16.3762 37.5125 16.649 37.3316 16.9291 37.3882C17.2091 37.4449 17.3901 37.7179 17.3334 37.9978C17.1434 38.9367 16.6219 39.6515 15.8652 40.0108C15.5299 40.1699 15.1696 40.249 14.7986 40.249Z" fill="#333333"/>
<path d="M23.8382 34.8725C21.7048 34.8725 19.9693 33.137 19.9693 31.0036C19.9693 30.718 20.2009 30.4863 20.4865 30.4863C20.7722 30.4863 21.0038 30.718 21.0038 31.0036C21.0038 32.5665 22.2754 33.838 23.8382 33.838C25.4011 33.838 26.6725 32.5664 26.6725 31.0036C26.6725 29.4408 25.4011 28.1693 23.8382 28.1693C23.3234 28.1693 22.8196 28.3085 22.3811 28.5719C22.1362 28.719 21.8185 28.6398 21.6713 28.3949C21.5242 28.15 21.6034 27.8323 21.8483 27.6851C22.4476 27.3251 23.1357 27.1347 23.8382 27.1347C25.9715 27.1347 27.7071 28.8703 27.7071 31.0036C27.7071 33.137 25.9715 34.8725 23.8382 34.8725Z" fill="#333333"/>
<path d="M23.6315 22.5215C23.1639 22.5215 22.6964 22.3436 22.3404 21.9876C22.1383 21.7855 22.1383 21.458 22.3404 21.2561C22.5424 21.0541 22.8698 21.0541 23.0719 21.2561C23.3803 21.5646 23.8824 21.5646 24.1911 21.2561C24.4995 20.9476 24.4995 20.4455 24.191 20.1369C23.8827 19.8285 23.3804 19.8283 23.0719 20.1369C22.8698 20.3388 22.5424 20.3388 22.3404 20.1369C22.1383 19.9348 22.1383 19.6073 22.3404 19.4053C23.0523 18.6935 24.2107 18.6936 24.9226 19.4053C25.6345 20.1173 25.6345 21.2757 24.9227 21.9876C24.5667 22.3436 24.0991 22.5215 23.6315 22.5215Z" fill="#333333"/>
<path d="M30.0859 41.1819C29.6182 41.1819 29.1507 41.0039 28.7948 40.6479C28.5928 40.4459 28.5928 40.1185 28.7947 39.9164C28.9968 39.7144 29.3242 39.7143 29.5263 39.9164C29.8349 40.225 30.3372 40.2249 30.6456 39.9164C30.954 39.6079 30.954 39.1058 30.6455 38.7972C30.337 38.4886 29.8348 38.4889 29.5263 38.7972C29.3244 38.9992 28.9968 38.9993 28.7947 38.7972C28.5928 38.5952 28.5928 38.2677 28.7948 38.0657C29.5068 37.3537 30.6653 37.3539 31.3771 38.0657C32.089 38.7777 32.089 39.9361 31.3772 40.6479C31.0211 41.0039 30.5536 41.1819 30.0859 41.1819Z" fill="#333333"/>
<path d="M16.6702 17.8243L15.5601 18.9334L12.4647 15.838L14.3807 15.5359L16.6702 17.8243Z" fill="#F2F2F2"/>
<path d="M15.5601 18.9334L12.5351 21.9584L9.43969 18.863L5.86634 15.2897C5.6977 15.121 5.53838 14.9452 5.38941 14.7621C4.34761 13.4844 3.78378 11.8736 3.81275 10.21C4.76247 10.1945 5.69667 10.3714 6.56052 10.7211C7.20815 10.9828 7.81647 11.3418 8.36375 11.7877C8.54687 11.9367 8.72274 12.096 8.89137 12.2646L12.4647 15.838L15.5601 18.9334Z" fill="#F2F2F2"/>
<path opacity="0.25" d="M8.36375 11.7877L12.5351 21.9584L5.38941 14.7621L8.36375 11.7877Z" fill="black"/>
<path d="M12.5351 21.9584L11.426 23.0685L9.13655 20.779L9.43968 18.863L12.5351 21.9584Z" fill="#F2F2F2"/>
<path opacity="0.25" d="M12.5351 21.9584L11.426 23.0685L9.13655 20.779L9.43968 18.863L12.5351 21.9584Z" fill="black"/>
<path d="M11.426 23.5857C11.2888 23.5857 11.1572 23.5311 11.0602 23.4342L8.77074 21.1447C8.65373 21.0276 8.59972 20.8617 8.62559 20.6981L8.92871 18.7821C8.95913 18.59 9.09476 18.4311 9.27974 18.371C9.46471 18.3109 9.6678 18.3596 9.80539 18.4972L12.9008 21.5926C13.1027 21.7945 13.1028 22.122 12.9009 22.3239L11.7918 23.434C11.6948 23.531 11.5633 23.5857 11.426 23.5857C11.4261 23.5857 11.4262 23.5857 11.426 23.5857ZM9.68859 20.5995L11.4258 22.3367L11.8036 21.9585L9.79184 19.9467L9.68859 20.5995Z" fill="#333333"/>
<path d="M15.5601 19.4506C15.4277 19.4506 15.2954 19.4002 15.1943 19.2992L12.0989 16.2038C11.9613 16.0662 11.9126 15.863 11.9728 15.6779C12.033 15.4929 12.1919 15.3573 12.3841 15.327L14.3001 15.0249C14.4638 14.999 14.6294 15.0531 14.7463 15.17L17.0358 17.4584C17.1328 17.5554 17.1873 17.687 17.1873 17.8243C17.1873 17.9616 17.1328 18.0932 17.0357 18.1903L15.9256 19.2993C15.8247 19.4002 15.6924 19.4506 15.5601 19.4506ZM13.5489 16.1907L15.5602 18.2019L15.9383 17.8241L14.2011 16.0878L13.5489 16.1907Z" fill="#333333"/>
<path d="M12.1693 21.5926L12.9008 22.3242L15.9259 19.2991L15.1943 18.5676L12.1693 21.5926Z" fill="#333333"/>
<path d="M8.36375 11.7877L5.38941 14.7621C4.34761 13.4844 3.78378 11.8736 3.81275 10.21C4.76247 10.1945 5.69667 10.3714 6.56052 10.7211C7.20816 10.9828 7.81647 11.3418 8.36375 11.7877Z" fill="#F24125"/>
<path d="M9.07387 19.2287L5.50052 15.6554C5.31844 15.4733 5.14608 15.2825 4.98811 15.0885C3.86582 13.7122 3.26454 11.9763 3.29547 10.201C3.30033 9.9222 3.52535 9.69739 3.80416 9.69274C4.82175 9.6767 5.81378 9.86085 6.7545 10.2416C7.45272 10.5237 8.10408 10.909 8.69036 11.3866C8.88403 11.5442 9.0747 11.7166 9.25698 11.8988L12.8303 15.4723L12.0988 16.2038L8.52545 12.6305C8.3681 12.4731 8.20381 12.3245 8.03714 12.1889C7.53093 11.7766 6.96897 11.4441 6.36654 11.2007C5.71633 10.9375 5.03725 10.7828 4.34172 10.7392C4.42676 12.0865 4.93183 13.3825 5.79019 14.4351C5.92624 14.6024 6.0748 14.7667 6.23205 14.9239L9.8054 18.4972L9.07387 19.2287Z" fill="#333333"/>
<path d="M5.02369 14.3962L5.75523 15.1278L8.72957 12.1534L7.99803 11.4219L5.02369 14.3962Z" fill="#333333"/>
<path d="M31.6322 16.6722C31.5446 16.6722 31.4559 16.6499 31.3745 16.603C31.1269 16.4605 31.0419 16.1441 31.1845 15.8966L33.4522 11.9599C33.4538 11.9573 33.4551 11.9547 33.4565 11.9522C33.4581 11.9496 33.4595 11.9471 33.4611 11.9445L35.5222 8.36634C35.6649 8.11877 35.981 8.03362 36.2287 8.17629L40.8006 10.81C40.9194 10.8784 41.0063 10.9913 41.0419 11.1238C41.0776 11.2564 41.0591 11.3976 40.9907 11.5163L38.925 15.1022C38.7823 15.3498 38.4663 15.4349 38.2185 15.2923L34.095 12.9169L32.081 16.4131C31.9852 16.5791 31.8111 16.6722 31.6322 16.6722ZM34.6112 12.0203L38.2866 14.1375L39.8359 11.4481L36.1605 9.33085L34.6112 12.0203Z" fill="#333333"/>
<path d="M24.7654 4.64028L24.7685 4.64339C24.3588 5.16894 23.7194 5.50621 23.0014 5.50621C22.2835 5.50621 21.6441 5.16894 21.2344 4.64339L21.2375 4.64132C21.0865 4.44889 20.9654 4.22957 20.8837 3.99369C21.1879 3.11639 22.0207 2.48634 23.0014 2.48634C23.9822 2.48634 24.8161 3.11639 25.1181 3.99472C25.0364 4.2306 24.9164 4.44786 24.7654 4.64028Z" fill="#20505B"/>
<path d="M25.2423 3.25812C25.2423 3.51573 25.1988 3.76402 25.1182 3.99473C24.8161 3.11639 23.9822 2.48635 23.0015 2.48635C22.0207 2.48635 21.1879 3.11639 20.8837 3.99369C20.8041 3.76402 20.7606 3.51676 20.7606 3.25812C20.7606 2.0208 21.7631 1.01728 23.0015 1.01728C24.2388 1.01728 25.2423 2.0208 25.2423 3.25812Z" fill="#1AA5E2"/>
<path d="M21.2344 4.64339C21.6441 5.16894 22.2835 5.5062 23.0014 5.5062C23.7194 5.5062 24.3588 5.16894 24.7685 4.64339C26.462 5.81864 25.7668 10.5155 25.7668 10.5155C25.5527 10.56 25.3385 10.5993 25.1233 10.6324H25.1223C24.8181 10.681 24.514 10.7183 24.2077 10.7462C23.8498 10.7773 23.4908 10.7959 23.1328 10.799C23.0894 10.799 23.0449 10.799 23.0014 10.799C22.957 10.799 22.9135 10.799 22.8701 10.799C22.5111 10.7959 22.1531 10.7773 21.7952 10.7462C21.4889 10.7183 21.1837 10.681 20.8796 10.6324C20.6644 10.5993 20.4492 10.56 20.2361 10.5155C20.2361 10.5155 19.5409 5.81864 21.2344 4.64339Z" fill="#1AA5E2"/>
<path d="M25.1311 5.0061L24.913 4.78792L24.7235 4.60739L24.7624 4.64442L24.3301 4.36044L24.3606 4.32268L24.3585 4.32092C24.4764 4.1707 24.5675 4.00393 24.6294 3.82537C24.693 3.64339 24.7251 3.45303 24.7251 3.25812C24.7251 2.30778 23.9519 1.53455 23.0015 1.53455C22.0512 1.53455 21.278 2.30778 21.278 3.25812C21.278 3.45282 21.3098 3.64339 21.3725 3.82423C21.4348 4.00393 21.5263 4.17132 21.6445 4.32195L20.8307 4.96079C20.6415 4.71974 20.4949 4.45138 20.3951 4.16315C20.2944 3.87306 20.2434 3.56859 20.2434 3.25812C20.2434 1.73733 21.4806 0.5 23.0015 0.5C24.5224 0.5 25.7597 1.73722 25.7597 3.25812C25.7597 3.56973 25.7081 3.87503 25.6066 4.16553C25.5084 4.44889 25.3636 4.71446 25.1771 4.95365C25.1646 4.97041 25.1509 4.98655 25.1371 5.00114L25.1366 5.00072C25.1346 5.00248 25.1328 5.00435 25.1311 5.0061ZM24.3876 4.28771L24.3884 4.28833L24.3876 4.28771Z" fill="#333333"/>
<path d="M21.3724 4.16315L20.395 3.82434C20.7797 2.71467 21.8271 1.96907 23.0015 1.96907C24.1779 1.96907 25.2252 2.7155 25.6073 3.82651L24.6289 4.16295C24.3904 3.46948 23.7364 3.00362 23.0015 3.00362C22.2675 3.00362 21.6129 3.46959 21.3724 4.16315Z" fill="#333333"/>
<path d="M23.0015 11.3163H22.8701C22.5089 11.3132 22.1337 11.2947 21.7506 11.2616C21.4223 11.2316 21.1026 11.1919 20.798 11.1433C20.5823 11.1101 20.3566 11.0691 20.1305 11.0219C19.9183 10.9777 19.7562 10.8058 19.7244 10.5913C19.6485 10.078 19.0372 5.53859 20.9396 4.2184C21.1652 4.06187 21.4737 4.10884 21.6425 4.32537C21.9713 4.74716 22.4666 4.98904 23.0016 4.98904C23.5365 4.98904 24.0319 4.74716 24.3607 4.32547C24.5296 4.10874 24.8382 4.06228 25.0635 4.2185C26.9661 5.5387 26.3547 10.0781 26.2787 10.5914C26.2469 10.806 26.0845 10.978 25.872 11.0221C25.6387 11.0706 25.4196 11.1104 25.202 11.1438C25.1986 11.1443 25.1954 11.1447 25.192 11.1453C24.8902 11.1932 24.5749 11.2323 24.2547 11.2615C23.8694 11.295 23.4941 11.3133 23.1373 11.3164H23.0015V11.3163V11.3163ZM20.7006 10.0784C20.7874 10.0937 20.8734 10.1081 20.9582 10.1211C21.2429 10.1666 21.5393 10.2034 21.8421 10.2311C22.1964 10.2618 22.5445 10.2789 22.8745 10.2817H23.1329C23.4585 10.2789 23.8067 10.2618 24.1631 10.2309C24.462 10.2036 24.758 10.1668 25.0406 10.1217C25.0456 10.1208 25.0508 10.1201 25.0558 10.1195C25.1373 10.1069 25.2191 10.0932 25.3023 10.0785C25.4777 8.55566 25.4525 6.33789 24.7761 5.37813C24.2844 5.7932 23.6617 6.02359 23.0014 6.02359C22.341 6.02359 21.7183 5.7932 21.2266 5.37803C20.5502 6.33779 20.5252 8.55556 20.7006 10.0784Z" fill="#333333"/>
<path d="M21.2999 14.4055C21.0999 14.4055 20.9096 14.289 20.825 14.0937C20.1022 12.4256 20.3568 10.6321 20.368 10.5566C20.4098 10.2739 20.6728 10.0784 20.9555 10.1207C21.2379 10.1625 21.4331 10.4253 21.3915 10.7076C21.3871 10.7385 21.1747 12.2985 21.7744 13.6824C21.8879 13.9445 21.7675 14.2491 21.5054 14.3627C21.4382 14.3918 21.3685 14.4055 21.2999 14.4055Z" fill="#333333"/>
<path d="M24.702 14.4056C24.6334 14.4056 24.5635 14.3918 24.4966 14.3627C24.2345 14.2491 24.1141 13.9446 24.2276 13.6824C24.8302 12.2916 24.6127 10.7229 24.6104 10.7073C24.5695 10.4249 24.7651 10.1623 25.0474 10.121C25.3306 10.0797 25.5922 10.2744 25.634 10.5566C25.6451 10.6321 25.8998 12.4257 25.1769 14.0937C25.0924 14.289 24.9019 14.4056 24.702 14.4056Z" fill="#333333"/>
<path d="M18.1861 8.72895C18.1518 8.72895 18.1171 8.72553 18.0821 8.71839C17.8022 8.66129 17.6216 8.38806 17.6788 8.10821C18.4035 4.55576 20.8059 4.39665 20.9078 4.39158C21.195 4.37823 21.4359 4.59735 21.45 4.88278C21.464 5.16625 21.2471 5.40772 20.9644 5.42468C20.8819 5.4312 19.2471 5.59652 18.6924 8.31502C18.6425 8.56 18.4269 8.72895 18.1861 8.72895Z" fill="#333333"/>
<path d="M27.9596 8.72895C27.7188 8.72895 27.5033 8.56011 27.4532 8.31513C26.8954 5.58504 25.2501 5.42975 25.1802 5.42448C24.8949 5.41041 24.6783 5.16781 24.6923 4.88248C24.7064 4.59715 24.9483 4.37844 25.2377 4.39148C25.3395 4.39655 27.741 4.55556 28.4667 8.1079C28.5239 8.38786 28.3434 8.66108 28.0635 8.71829C28.0287 8.72553 27.9938 8.72895 27.9596 8.72895Z" fill="#333333"/>
<path d="M23.8172 4.43907C23.7831 4.43907 23.7489 4.43596 23.7158 4.42872C23.6827 4.42251 23.6506 4.41217 23.6196 4.39975C23.5875 4.3863 23.5575 4.37079 23.5296 4.35216C23.5017 4.33354 23.4748 4.31182 23.451 4.28802C23.3548 4.19181 23.2999 4.05835 23.2999 3.92179C23.2999 3.88868 23.303 3.85454 23.3103 3.8204C23.3165 3.78833 23.3268 3.75523 23.3392 3.72419C23.3527 3.69315 23.3682 3.66315 23.3868 3.63522C23.4054 3.60625 23.4272 3.58039 23.451 3.55659C23.4748 3.5328 23.5017 3.51107 23.5296 3.49141C23.5575 3.47279 23.5875 3.45727 23.6196 3.44486C23.6506 3.43141 23.6827 3.42106 23.7158 3.41486C23.8844 3.38072 24.0624 3.43658 24.1824 3.55659C24.2062 3.58039 24.2279 3.60625 24.2476 3.63522C24.2652 3.66315 24.2817 3.69315 24.2952 3.72419C24.3076 3.75523 24.3179 3.78833 24.3241 3.8204C24.3314 3.85454 24.3345 3.88868 24.3345 3.92179C24.3345 3.95593 24.3315 3.99007 24.3241 4.02318C24.3178 4.05628 24.3076 4.08835 24.2952 4.11939C24.2817 4.15146 24.2652 4.18146 24.2476 4.20939C24.228 4.23733 24.2063 4.26423 24.1824 4.28802C24.1587 4.31182 24.1328 4.33354 24.1038 4.35216C24.0757 4.37079 24.0457 4.3863 24.0148 4.39975C23.9838 4.41217 23.9507 4.42251 23.9186 4.42872C23.8844 4.43596 23.8503 4.43907 23.8172 4.43907Z" fill="white"/>
<path d="M24.4728 9.92241C24.4566 9.92241 24.4402 9.92169 24.4236 9.92013C24.1392 9.89324 23.9303 9.64091 23.9572 9.35651C24.12 7.63149 23.867 6.4969 23.8645 6.48562C23.8008 6.20712 23.975 5.92975 24.2535 5.86613C24.5319 5.8024 24.8093 5.97652 24.873 6.25512C24.885 6.30768 25.1653 7.56487 24.9872 9.45365C24.9619 9.7216 24.7366 9.92241 24.4728 9.92241Z" fill="white"/>
<path d="M44.1221 8.07107C43.8363 8.07107 43.6048 7.83943 43.6048 7.55379V5.33633C43.6048 5.05069 43.8363 4.81905 44.1221 4.81905C44.4078 4.81905 44.6393 5.05069 44.6393 5.33633V7.55379C44.6393 7.83943 44.4078 8.07107 44.1221 8.07107Z" fill="#FCBC1D"/>
<path d="M45.2308 6.96234H43.0133C42.7276 6.96234 42.4961 6.7307 42.4961 6.44506C42.4961 6.15942 42.7276 5.92779 43.0133 5.92779H45.2308C45.5165 5.92779 45.7481 6.15942 45.7481 6.44506C45.7481 6.7307 45.5165 6.96234 45.2308 6.96234Z" fill="#FCBC1D"/>
<path d="M3.87791 39.7284C3.59227 39.7284 3.36063 39.4968 3.36063 39.2112V36.9937C3.36063 36.708 3.59227 36.4764 3.87791 36.4764C4.16355 36.4764 4.39519 36.708 4.39519 36.9937V39.2112C4.39519 39.4968 4.16355 39.7284 3.87791 39.7284Z" fill="#FCBC1D"/>
<path d="M4.98654 38.6197H2.76918C2.48354 38.6197 2.25191 38.3881 2.25191 38.1024C2.25191 37.8168 2.48354 37.5851 2.76918 37.5851H4.98654C5.27218 37.5851 5.50382 37.8168 5.50382 38.1024C5.50382 38.3881 5.27229 38.6197 4.98654 38.6197Z" fill="#FCBC1D"/>
</g>
<defs>
<clipPath id="clip0_96_5419">
<rect width="48" height="48" fill="white" transform="translate(0 0.5)"/>
</clipPath>
</defs>
</svg>
