<svg width="48" height="49" viewBox="0 0 48 49" fill="none" xmlns="http://www.w3.org/2000/svg">
<g clip-path="url(#clip0_5_2771)">
<path d="M19.1031 45.804C19.0618 45.804 19.02 45.7997 18.978 45.7908C18.6555 45.722 18.4499 45.4049 18.5187 45.0824L23.4419 22.0034C23.5108 21.6809 23.828 21.4757 24.1503 21.5441C24.4727 21.6128 24.6783 21.9299 24.6096 22.2524L19.6864 45.3315C19.6265 45.6119 19.3788 45.804 19.1031 45.804Z" fill="#333333"/>
<path d="M35.6926 45.804C35.4169 45.804 35.1692 45.6119 35.1094 45.3315L30.1862 22.2524C30.1174 21.9299 30.323 21.6128 30.6455 21.5441C30.9677 21.4757 31.2849 21.6809 31.3538 22.0034L36.277 45.0824C36.3458 45.4049 36.1402 45.722 35.8177 45.7908C35.7758 45.7997 35.7339 45.804 35.6926 45.804Z" fill="#333333"/>
<path d="M32.9729 33.0932H21.814C21.4844 33.0932 21.2171 32.8259 21.2171 32.4963C21.2171 32.1666 21.4844 31.8993 21.814 31.8993H32.9729C33.3025 31.8993 33.5698 32.1666 33.5698 32.4963C33.5698 32.8259 33.3025 33.0932 32.9729 33.0932Z" fill="#333333"/>
<path d="M40.6654 2.87134C43.0903 1.86308 45.8734 3.0115 46.8817 5.43645C47.8895 7.8602 46.741 10.6433 44.3161 11.6516L40.6654 2.87134Z" fill="#61CCF2"/>
<path d="M44.3161 11.6516L45.0539 13.4258L38.1843 16.2823L37.4665 14.556L33.7757 5.67953L33.0579 3.95326L39.9275 1.09695L40.6653 2.87134L44.3161 11.6516Z" fill="#FCBC1D"/>
<path d="M37.7754 45.2068L38.4558 47.903H33.2124L33.8927 45.2068H37.7754Z" fill="#20505B"/>
<path d="M33.7757 5.67953L37.4665 14.556L31.7747 16.9227C31.3059 15.7954 30.4079 14.8479 29.1909 14.3457C26.7552 13.3407 23.9675 14.4999 22.9636 16.9351C22.4603 18.1526 22.4987 19.4575 22.9674 20.5848L12.8426 24.7946L12.037 22.857L9.95743 17.8557L9.15178 15.9181L33.7757 5.67953Z" fill="#20505B"/>
<path d="M31.7747 16.9227C32.2434 18.05 32.2823 19.356 31.7802 20.5731C30.7747 23.0076 27.9869 24.1667 25.5529 23.1624C24.3347 22.6607 23.4362 21.712 22.9675 20.5848C22.4987 19.4575 22.4603 18.1525 22.9636 16.9351C23.9675 14.4999 26.7552 13.3407 29.1909 14.3457C30.4079 14.8479 31.306 15.7954 31.7747 16.9227ZM29.5341 17.8543C29.0375 16.66 27.6658 16.0941 26.4716 16.5907C25.2773 17.0872 24.7114 18.4589 25.2079 19.6531C25.7045 20.8474 27.0762 21.4133 28.2704 20.9168C29.4647 20.4202 30.0307 19.0486 29.5341 17.8543Z" fill="#FCBC1D"/>
<path d="M26.4717 16.5907C27.6659 16.0941 29.0375 16.66 29.5342 17.8543C30.0307 19.0486 29.4648 20.4201 28.2705 20.9168C27.0763 21.4133 25.7047 20.8474 25.208 19.6531C24.7114 18.4589 25.2774 17.0872 26.4717 16.5907Z" fill="#20505B"/>
<path d="M20.9029 45.2068L21.5834 47.903H16.3398L17.0202 45.2068H20.9029Z" fill="#20505B"/>
<path d="M12.0378 22.8579L9.95843 17.8563L3.26455 20.6392L5.34395 25.6408L12.0378 22.8579Z" fill="#FCBC1D"/>
<path d="M3.26403 20.6388L5.34358 25.6401L5.80789 26.7569L3.76225 27.6074L0.75396 20.3726L2.7996 19.5221L3.26403 20.6388Z" fill="#20505B"/>
<path d="M38.1845 16.8795C37.9506 16.8795 37.7286 16.741 37.6331 16.5115L36.9153 14.7854C36.7886 14.4809 36.9328 14.1314 37.2373 14.0049C37.5415 13.8781 37.8912 14.0223 38.0177 14.3269L38.5064 15.5019L44.2736 13.104L39.6055 1.87729L33.8382 4.27526L34.3268 5.45018C34.4534 5.75463 34.3092 6.10409 34.0048 6.23064C33.7003 6.35731 33.3509 6.21309 33.2243 5.90864L32.5065 4.18249C32.4458 4.03624 32.4455 3.87196 32.5059 3.72558C32.5664 3.57921 32.6824 3.4628 32.8287 3.40215L39.6984 0.545727C39.8445 0.484957 40.0089 0.484718 40.1553 0.54513C40.3017 0.605542 40.4181 0.72159 40.4787 0.867843L45.6051 13.1967C45.6659 13.343 45.6662 13.5073 45.6057 13.6536C45.5453 13.8 45.4293 13.9164 45.283 13.9771L38.4134 16.8335C38.3385 16.8647 38.2609 16.8795 38.1845 16.8795Z" fill="#333333"/>
<path d="M12.8429 25.3917C12.609 25.3917 12.3869 25.2532 12.2914 25.0237L11.4858 23.0861C11.3591 22.7818 11.5033 22.4323 11.8078 22.3058C12.112 22.179 12.4615 22.3233 12.5881 22.6278L13.1646 24.0141L22.7382 20.0335L23.1984 21.1352L13.0717 25.3458C12.9969 25.377 12.9193 25.3917 12.8429 25.3917Z" fill="#333333"/>
<path d="M9.95767 18.4528C9.72379 18.4528 9.50172 18.3143 9.40621 18.0848L8.60056 16.1472C8.474 15.8428 8.61811 15.4935 8.92256 15.3669L33.5464 5.12842C33.6926 5.06765 33.857 5.06741 34.0033 5.12783C34.1497 5.18824 34.2661 5.30428 34.3268 5.45054L38.0176 14.3271C38.0784 14.4733 38.0786 14.6377 38.0182 14.784C37.9578 14.9304 37.8418 15.0468 37.6955 15.1075L32.0037 17.474C31.6992 17.6007 31.3483 17.4572 31.2217 17.153C31.095 16.8488 31.2372 16.5 31.5415 16.3734L36.6859 14.2344L33.4537 6.45999L9.93224 16.2401L10.5087 17.6265C10.6352 17.9309 10.4911 18.2803 10.1867 18.4068C10.1117 18.438 10.0341 18.4528 9.95767 18.4528Z" fill="#333333"/>
<path d="M5.34381 26.2372C5.10993 26.2372 4.88786 26.0987 4.79235 25.8692C4.66567 25.5648 4.8099 25.2155 5.11434 25.0889L11.2565 22.5349L9.63532 18.6359L3.49313 21.19C3.18845 21.3167 2.83923 21.1723 2.71268 20.868C2.586 20.5635 2.73023 20.214 3.03467 20.0875L9.72808 17.3043C9.87446 17.2435 10.0387 17.2432 10.185 17.3037C10.3314 17.3641 10.4478 17.4801 10.5084 17.6264L12.588 22.6278C12.7145 22.9322 12.5704 23.2816 12.266 23.4081L5.57256 26.1912C5.49783 26.2225 5.4201 26.2372 5.34381 26.2372Z" fill="#333333"/>
<path d="M27.364 24.1197C26.6835 24.1197 25.9922 23.9894 25.3252 23.7142C24.0002 23.1685 22.967 22.1385 22.4162 20.814C21.8658 19.4902 21.8643 18.0317 22.4119 16.7071C22.958 15.3823 23.9878 14.3495 25.3111 13.7992C26.6344 13.249 28.0931 13.2471 29.4186 13.7941C30.7431 14.3406 31.7758 15.3704 32.3259 16.6937C32.8764 18.0176 32.8787 19.4763 32.3321 20.801C31.4781 22.8683 29.4731 24.1197 27.364 24.1197ZM23.5187 20.3555C23.9468 21.3853 24.7501 22.1861 25.7803 22.6105C27.9063 23.4877 30.3503 22.4715 31.2286 20.3453C31.6534 19.3156 31.6516 18.1814 31.2236 17.1519C30.7958 16.1231 29.9931 15.3225 28.9633 14.8976C27.9326 14.4722 26.7983 14.4737 25.7696 14.9015C24.7408 15.3293 23.9403 16.1323 23.5156 17.1625C23.0896 18.1928 23.0908 19.3265 23.5187 20.3555Z" fill="#333333"/>
<path d="M27.3749 21.6933C26.2222 21.6933 25.1262 21.0113 24.6567 19.8823C24.0345 18.3857 24.7458 16.6618 26.2425 16.0394C27.7389 15.4169 29.4629 16.1284 30.0853 17.6251C30.3866 18.3499 30.3877 19.1488 30.0882 19.8747C29.7886 20.6008 29.2245 21.1664 28.4997 21.4679C28.1319 21.6208 27.7504 21.6933 27.3749 21.6933ZM27.3707 17.0072C27.1438 17.0072 26.9168 17.0521 26.7009 17.1418C26.2706 17.3207 25.9356 17.6567 25.7577 18.0878C25.5799 18.5189 25.5805 18.9934 25.7593 19.4238C25.9383 19.8541 26.2742 20.1891 26.7053 20.367C27.1366 20.5449 27.6109 20.5443 28.0413 20.3654C28.4716 20.1865 28.8066 19.8505 28.9845 19.4194C29.1624 18.9883 29.1618 18.5138 28.9828 18.0834C28.8039 17.6531 28.4679 17.3181 28.0368 17.1402C27.822 17.0515 27.5962 17.0072 27.3707 17.0072Z" fill="#333333"/>
<path d="M21.5833 48.5H16.3398C16.1557 48.5 15.982 48.4151 15.8689 48.2699C15.7559 48.1248 15.716 47.9355 15.761 47.757L16.4414 45.0608C16.5084 44.7958 16.7468 44.61 17.0202 44.61H20.9029C21.1763 44.61 21.4149 44.7958 21.4817 45.0608L22.1622 47.757C22.2072 47.9355 22.1673 48.1248 22.0542 48.2699C21.9412 48.4151 21.7673 48.5 21.5833 48.5ZM17.1062 47.3061H20.8171L20.438 45.8038H17.4854L17.1062 47.3061Z" fill="#333333"/>
<path d="M38.4558 48.5H33.2123C33.0282 48.5 32.8545 48.4151 32.7414 48.2699C32.6283 48.1248 32.5885 47.9355 32.6335 47.757L33.3139 45.0608C33.3809 44.7958 33.6193 44.61 33.8927 44.61H37.7754C38.0488 44.61 38.2873 44.7958 38.3542 45.0608L39.0346 47.757C39.0796 47.9355 39.0397 48.1248 38.9267 48.2699C38.8136 48.4151 38.6399 48.5 38.4558 48.5ZM33.9786 47.3061H37.6895L37.3104 45.8038H34.3578L33.9786 47.3061Z" fill="#333333"/>
<path d="M44.3163 12.2487C44.0824 12.2487 43.8604 12.1102 43.7649 11.8807C43.6382 11.5762 43.7824 11.2268 44.0869 11.1002C46.204 10.2199 47.2105 7.78189 46.3305 5.66545C45.4501 3.54841 43.0115 2.54207 40.8945 3.42233C40.59 3.54913 40.2406 3.40466 40.1141 3.10034C39.9876 2.79589 40.1317 2.44655 40.4361 2.32C43.1612 1.18674 46.2999 2.48225 47.4329 5.20711C48.5657 7.93137 47.2703 11.0696 44.5453 12.2026C44.4703 12.2339 44.3927 12.2487 44.3163 12.2487Z" fill="#333333"/>
<path d="M45.1324 8.91681C45.0583 8.91681 44.9831 8.90296 44.9103 8.87371C44.6043 8.75098 44.4558 8.40343 44.5785 8.09743C44.7993 7.54704 44.7958 6.94352 44.569 6.3979C44.3387 5.84393 43.9053 5.41245 43.3488 5.18286C43.044 5.05714 42.8989 4.70805 43.0246 4.40336C43.1504 4.09868 43.4993 3.95338 43.8041 4.07921C44.6554 4.43046 45.3186 5.09129 45.6713 5.93968C46.019 6.77554 46.0243 7.69986 45.6865 8.54204C45.5931 8.77509 45.3691 8.91681 45.1324 8.91681Z" fill="white"/>
<path d="M3.76248 28.2045C3.5286 28.2045 3.30653 28.066 3.21102 27.8365L0.202847 20.6017C0.142077 20.4556 0.141838 20.2912 0.20225 20.1448C0.262661 19.9984 0.378709 19.882 0.524963 19.8214L2.57061 18.9708C2.71674 18.9101 2.88114 18.9098 3.02751 18.9702C3.17389 19.0306 3.29029 19.1467 3.35094 19.2929L6.35911 26.5278C6.48567 26.8322 6.34156 27.1816 6.03712 27.3081L3.99148 28.1587C3.9165 28.1898 3.83889 28.2045 3.76248 28.2045ZM1.53441 20.6946L4.08424 26.827L5.02743 26.4348L2.7128 20.8679L2.4776 20.3024L1.53441 20.6946Z" fill="#333333"/>
<path d="M42.0228 11.9034C41.7889 11.9034 41.5669 11.7649 41.4714 11.5354L39.6824 7.2328C39.5557 6.92847 39.7 6.57902 40.0044 6.45246C40.3086 6.32555 40.6582 6.47001 40.7847 6.77446L42.5737 11.0771C42.7004 11.3815 42.5561 11.7309 42.2517 11.8574C42.1768 11.8887 42.0991 11.9034 42.0228 11.9034Z" fill="white"/>
<path d="M39.3857 5.56134C39.1518 5.56134 38.9298 5.42285 38.8343 5.19338L38.3464 4.02C38.2199 3.71556 38.364 3.36622 38.6684 3.23967C38.9726 3.11287 39.3222 3.25722 39.4488 3.56166L39.9366 4.73504C40.0633 5.03948 39.919 5.38882 39.6146 5.51537C39.5397 5.54654 39.4621 5.56134 39.3857 5.56134Z" fill="white"/>
<path d="M11.9543 17.4312C11.7204 17.4312 11.4983 17.2927 11.4028 17.0632C11.2761 16.7588 11.4203 16.4094 11.7248 16.2829L26.9907 9.93533C27.295 9.80842 27.6444 9.95288 27.771 10.2573C27.8977 10.5618 27.7535 10.9111 27.449 11.0377L12.1832 17.3852C12.1083 17.4165 12.0307 17.4312 11.9543 17.4312Z" fill="white"/>
<path d="M29.3339 10.2048C29.1 10.2048 28.8779 10.0663 28.7824 9.83684C28.6557 9.53239 28.7999 9.18306 29.1044 9.0565L30.1612 8.61702C30.4656 8.49023 30.815 8.63457 30.9416 8.93902C31.0682 9.24347 30.924 9.59281 30.6196 9.71936L29.5627 10.1588C29.4879 10.19 29.4103 10.2048 29.3339 10.2048Z" fill="white"/>
</g>
<defs>
<clipPath id="clip0_5_2771">
<rect width="48" height="48" fill="white" transform="translate(0 0.5)"/>
</clipPath>
</defs>
</svg>
